%TF.GenerationSoftware,KiCad,Pcbnew,(6.0.2)*%
%TF.CreationDate,2022-11-16T19:52:16+00:00*%
%TF.ProjectId,greenhouse-control-unit,67726565-6e68-46f7-9573-652d636f6e74,2*%
%TF.SameCoordinates,Original*%
%TF.FileFunction,Copper,L1,Top*%
%TF.FilePolarity,Positive*%
%FSLAX46Y46*%
G04 Gerber Fmt 4.6, Leading zero omitted, Abs format (unit mm)*
G04 Created by KiCad (PCBNEW (6.0.2)) date 2022-11-16 19:52:16*
%MOMM*%
%LPD*%
G01*
G04 APERTURE LIST*
G04 Aperture macros list*
%AMRoundRect*
0 Rectangle with rounded corners*
0 $1 Rounding radius*
0 $2 $3 $4 $5 $6 $7 $8 $9 X,Y pos of 4 corners*
0 Add a 4 corners polygon primitive as box body*
4,1,4,$2,$3,$4,$5,$6,$7,$8,$9,$2,$3,0*
0 Add four circle primitives for the rounded corners*
1,1,$1+$1,$2,$3*
1,1,$1+$1,$4,$5*
1,1,$1+$1,$6,$7*
1,1,$1+$1,$8,$9*
0 Add four rect primitives between the rounded corners*
20,1,$1+$1,$2,$3,$4,$5,0*
20,1,$1+$1,$4,$5,$6,$7,0*
20,1,$1+$1,$6,$7,$8,$9,0*
20,1,$1+$1,$8,$9,$2,$3,0*%
G04 Aperture macros list end*
%TA.AperFunction,ComponentPad*%
%ADD10O,1.700000X1.700000*%
%TD*%
%TA.AperFunction,ComponentPad*%
%ADD11R,1.700000X1.700000*%
%TD*%
%TA.AperFunction,ComponentPad*%
%ADD12C,2.000000*%
%TD*%
%TA.AperFunction,ComponentPad*%
%ADD13R,1.800000X1.800000*%
%TD*%
%TA.AperFunction,ComponentPad*%
%ADD14C,1.800000*%
%TD*%
%TA.AperFunction,ComponentPad*%
%ADD15C,1.600000*%
%TD*%
%TA.AperFunction,ComponentPad*%
%ADD16O,1.600000X1.600000*%
%TD*%
%TA.AperFunction,ComponentPad*%
%ADD17O,1.050000X1.500000*%
%TD*%
%TA.AperFunction,ComponentPad*%
%ADD18R,1.050000X1.500000*%
%TD*%
%TA.AperFunction,ComponentPad*%
%ADD19RoundRect,0.250000X-1.330000X-1.800000X1.330000X-1.800000X1.330000X1.800000X-1.330000X1.800000X0*%
%TD*%
%TA.AperFunction,ComponentPad*%
%ADD20O,3.160000X4.100000*%
%TD*%
%TA.AperFunction,ComponentPad*%
%ADD21RoundRect,0.250000X-0.620000X-0.845000X0.620000X-0.845000X0.620000X0.845000X-0.620000X0.845000X0*%
%TD*%
%TA.AperFunction,ComponentPad*%
%ADD22O,1.740000X2.190000*%
%TD*%
%TA.AperFunction,ComponentPad*%
%ADD23R,1.600000X1.600000*%
%TD*%
%TA.AperFunction,ComponentPad*%
%ADD24O,2.200000X2.200000*%
%TD*%
%TA.AperFunction,ComponentPad*%
%ADD25R,2.200000X2.200000*%
%TD*%
%TA.AperFunction,ComponentPad*%
%ADD26R,2.000000X2.000000*%
%TD*%
%TA.AperFunction,ComponentPad*%
%ADD27O,1.400000X1.400000*%
%TD*%
%TA.AperFunction,ComponentPad*%
%ADD28C,1.400000*%
%TD*%
%TA.AperFunction,ViaPad*%
%ADD29C,0.800000*%
%TD*%
%TA.AperFunction,ViaPad*%
%ADD30C,1.000000*%
%TD*%
%TA.AperFunction,Conductor*%
%ADD31C,0.250000*%
%TD*%
%TA.AperFunction,Conductor*%
%ADD32C,0.500000*%
%TD*%
G04 APERTURE END LIST*
D10*
%TO.P,J10,30,D23*%
%TO.N,/MOSI*%
X175660000Y-85598000D03*
%TO.P,J10,29,D22*%
%TO.N,/I2C_SCL*%
X175660000Y-88138000D03*
%TO.P,J10,28,TXD*%
%TO.N,unconnected-(J10-Pad28)*%
X175660000Y-90678000D03*
%TO.P,J10,27,RXD*%
%TO.N,unconnected-(J10-Pad27)*%
X175660000Y-93218000D03*
%TO.P,J10,26,D21*%
%TO.N,/I2C_SDA*%
X175660000Y-95758000D03*
%TO.P,J10,25,D19*%
%TO.N,/MISO*%
X175660000Y-98298000D03*
%TO.P,J10,24,D18*%
%TO.N,/SCLK*%
X175660000Y-100838000D03*
%TO.P,J10,23,D5*%
%TO.N,/RFM95_CS*%
X175660000Y-103378000D03*
%TO.P,J10,22,TX2*%
%TO.N,unconnected-(J10-Pad22)*%
X175660000Y-105918000D03*
%TO.P,J10,21,RX2*%
%TO.N,unconnected-(J10-Pad21)*%
X175660000Y-108458000D03*
%TO.P,J10,20,D4*%
%TO.N,/RFM95_IRQ*%
X175660000Y-110998000D03*
%TO.P,J10,19,D2*%
%TO.N,unconnected-(J10-Pad19)*%
X175660000Y-113538000D03*
%TO.P,J10,18,D15*%
%TO.N,unconnected-(J10-Pad18)*%
X175660000Y-116078000D03*
%TO.P,J10,17,GND*%
%TO.N,unconnected-(J10-Pad17)*%
X175660000Y-118618000D03*
%TO.P,J10,16,3V3*%
%TO.N,+3V3*%
X175660000Y-121158000D03*
%TO.P,J10,15,EN*%
%TO.N,unconnected-(J10-Pad15)*%
X151130000Y-85598000D03*
%TO.P,J10,14,VP*%
%TO.N,unconnected-(J10-Pad14)*%
X151130000Y-88138000D03*
%TO.P,J10,13,VN*%
%TO.N,unconnected-(J10-Pad13)*%
X151130000Y-90678000D03*
%TO.P,J10,12,D34*%
%TO.N,/VSense*%
X151130000Y-93218000D03*
%TO.P,J10,11,D35*%
%TO.N,unconnected-(J10-Pad11)*%
X151130000Y-95758000D03*
%TO.P,J10,10,D32*%
%TO.N,unconnected-(J10-Pad10)*%
X151130000Y-98298000D03*
%TO.P,J10,9,D33*%
%TO.N,unconnected-(J10-Pad9)*%
X151130000Y-100838000D03*
%TO.P,J10,8,D25*%
%TO.N,unconnected-(J10-Pad8)*%
X151130000Y-103378000D03*
%TO.P,J10,7,D26*%
%TO.N,unconnected-(J10-Pad7)*%
X151130000Y-105918000D03*
%TO.P,J10,6,D27*%
%TO.N,/HC12_TX*%
X151130000Y-108458000D03*
%TO.P,J10,5,D14*%
%TO.N,/HC12_RX*%
X151130000Y-110998000D03*
%TO.P,J10,4,D12*%
%TO.N,unconnected-(J10-Pad4)*%
X151130000Y-113538000D03*
%TO.P,J10,3,D13*%
%TO.N,unconnected-(J10-Pad3)*%
X151130000Y-116078000D03*
%TO.P,J10,2,GND*%
%TO.N,unconnected-(J10-Pad2)*%
X151130000Y-118618000D03*
D11*
%TO.P,J10,1,VIN_5V*%
%TO.N,+5V*%
X151130000Y-121158000D03*
%TD*%
D10*
%TO.P,J3,3,Pin_3*%
%TO.N,unconnected-(J3-Pad3)*%
X96226800Y-71729600D03*
%TO.P,J3,2,Pin_2*%
%TO.N,Net-(BZ1-Pad1)*%
X93686800Y-71729600D03*
D11*
%TO.P,J3,1,Pin_1*%
%TO.N,Net-(J3-Pad1)*%
X91146800Y-71729600D03*
%TD*%
D12*
%TO.P,J6,1,Pin_1*%
%TO.N,GND*%
X200170000Y-104008000D03*
%TD*%
D13*
%TO.P,D4,1,K*%
%TO.N,GND*%
X77978000Y-60706000D03*
D14*
%TO.P,D4,2,A*%
%TO.N,Net-(D4-Pad2)*%
X77978000Y-63246000D03*
%TD*%
D12*
%TO.P,J5,1,Pin_1*%
%TO.N,/Buck+12V*%
X217170000Y-64008000D03*
%TD*%
%TO.P,J4,1,Pin_1*%
%TO.N,+5V*%
X217170000Y-104008000D03*
%TD*%
D14*
%TO.P,D3,2,A*%
%TO.N,Net-(D3-Pad2)*%
X77978000Y-83058000D03*
D13*
%TO.P,D3,1,K*%
%TO.N,/IO_PsuLed*%
X77978000Y-80518000D03*
%TD*%
D15*
%TO.P,R16,1*%
%TO.N,Net-(Q6-Pad1)*%
X119989600Y-82092800D03*
D16*
%TO.P,R16,2*%
%TO.N,+5V*%
X127609600Y-82092800D03*
%TD*%
D10*
%TO.P,J12,5,Pin_5*%
%TO.N,unconnected-(J12-Pad5)*%
X94017000Y-128769000D03*
%TO.P,J12,4,Pin_4*%
%TO.N,unconnected-(J12-Pad4)*%
X96557000Y-128769000D03*
%TO.P,J12,3,Pin_3*%
%TO.N,unconnected-(J12-Pad3)*%
X99097000Y-128769000D03*
%TO.P,J12,2,Pin_2*%
%TO.N,unconnected-(J12-Pad2)*%
X101637000Y-128769000D03*
D11*
%TO.P,J12,1,Pin_1*%
%TO.N,unconnected-(J12-Pad1)*%
X104177000Y-128769000D03*
%TD*%
D17*
%TO.P,Q1,3,E*%
%TO.N,GND*%
X114300000Y-88138000D03*
%TO.P,Q1,2,B*%
%TO.N,Net-(Q1-Pad2)*%
X113030000Y-88138000D03*
D18*
%TO.P,Q1,1,C*%
%TO.N,Net-(C1-Pad1)*%
X111760000Y-88138000D03*
%TD*%
D16*
%TO.P,R1,2*%
%TO.N,Net-(Q1-Pad2)*%
X119989600Y-91236800D03*
D15*
%TO.P,R1,1*%
%TO.N,/IO_Beep*%
X127609600Y-91236800D03*
%TD*%
D16*
%TO.P,R9,2*%
%TO.N,/VSense*%
X134112000Y-60198000D03*
D15*
%TO.P,R9,1*%
%TO.N,+12V*%
X134112000Y-52578000D03*
%TD*%
%TO.P,C2,2*%
%TO.N,GND*%
X145542000Y-83994000D03*
%TO.P,C2,1*%
%TO.N,+3V3*%
X145542000Y-78994000D03*
%TD*%
D19*
%TO.P,J1,1,Pin_1*%
%TO.N,+12V*%
X201930000Y-51308000D03*
D20*
%TO.P,J1,2,Pin_2*%
%TO.N,GND*%
X205890000Y-51308000D03*
%TD*%
D21*
%TO.P,J14,1,Pin_1*%
%TO.N,+5V*%
X87376000Y-49530000D03*
D22*
%TO.P,J14,2,Pin_2*%
%TO.N,/CaseFan_Sink*%
X89916000Y-49530000D03*
%TO.P,J14,3,Pin_3*%
%TO.N,+12V*%
X92456000Y-49530000D03*
%TO.P,J14,4,Pin_4*%
%TO.N,GND*%
X94996000Y-49530000D03*
%TO.P,J14,5,Pin_5*%
%TO.N,/PsuRelayNC_IN*%
X97536000Y-49530000D03*
%TO.P,J14,6,Pin_6*%
%TO.N,/BattRelayNC_A*%
X100076000Y-49530000D03*
%TO.P,J14,7,Pin_7*%
%TO.N,GND*%
X102616000Y-49530000D03*
%TO.P,J14,8,Pin_8*%
%TO.N,unconnected-(J14-Pad8)*%
X105156000Y-49530000D03*
%TO.P,J14,9,Pin_9*%
%TO.N,/I2C_SCL*%
X107696000Y-49530000D03*
%TO.P,J14,10,Pin_10*%
%TO.N,/I2C_SDA*%
X110236000Y-49530000D03*
%TO.P,J14,11,Pin_11*%
%TO.N,+3V3*%
X112776000Y-49530000D03*
%TO.P,J14,12,Pin_12*%
%TO.N,GND*%
X115316000Y-49530000D03*
%TD*%
D15*
%TO.P,R10,1*%
%TO.N,/VSense*%
X137160000Y-60198000D03*
D16*
%TO.P,R10,2*%
%TO.N,GND*%
X137160000Y-52578000D03*
%TD*%
%TO.P,R3,2*%
%TO.N,Net-(C1-Pad1)*%
X119989600Y-79044800D03*
D15*
%TO.P,R3,1*%
%TO.N,+5V*%
X127609600Y-79044800D03*
%TD*%
D17*
%TO.P,Q7,3,E*%
%TO.N,GND*%
X107950000Y-95758000D03*
%TO.P,Q7,2,B*%
%TO.N,Net-(Q6-Pad3)*%
X106680000Y-95758000D03*
D18*
%TO.P,Q7,1,C*%
%TO.N,/CaseFan_Sink*%
X105410000Y-95758000D03*
%TD*%
D15*
%TO.P,C1,2*%
%TO.N,GND*%
X125142621Y-68961000D03*
D23*
%TO.P,C1,1*%
%TO.N,Net-(C1-Pad1)*%
X122642621Y-68961000D03*
%TD*%
D12*
%TO.P,J7,1,Pin_1*%
%TO.N,GND*%
X200170000Y-64008000D03*
%TD*%
D13*
%TO.P,D7,1,K*%
%TO.N,/CaseFan_Sink*%
X77978000Y-87117000D03*
D14*
%TO.P,D7,2,A*%
%TO.N,Net-(D7-Pad2)*%
X77978000Y-89657000D03*
%TD*%
D24*
%TO.P,D6,2,A*%
%TO.N,+12V*%
X210820000Y-50038000D03*
D25*
%TO.P,D6,1,K*%
%TO.N,/Buck+12V*%
X210820000Y-57658000D03*
%TD*%
D10*
%TO.P,J11,5,Pin_5*%
%TO.N,/HC12_SET*%
X94017000Y-104278000D03*
%TO.P,J11,4,Pin_4*%
%TO.N,/HC12_TX*%
X96557000Y-104278000D03*
%TO.P,J11,3,Pin_3*%
%TO.N,/HC12_RX*%
X99097000Y-104278000D03*
%TO.P,J11,2,Pin_2*%
%TO.N,GND*%
X101637000Y-104278000D03*
D11*
%TO.P,J11,1,Pin_1*%
%TO.N,+3V3*%
X104177000Y-104278000D03*
%TD*%
D16*
%TO.P,R17,2*%
%TO.N,Net-(D7-Pad2)*%
X89662000Y-89916000D03*
D15*
%TO.P,R17,1*%
%TO.N,+5V*%
X97282000Y-89916000D03*
%TD*%
D18*
%TO.P,Q2,1,C*%
%TO.N,/PsuRelayNC_IN*%
X105410000Y-80518000D03*
D17*
%TO.P,Q2,2,B*%
%TO.N,Net-(Q2-Pad2)*%
X106680000Y-80518000D03*
%TO.P,Q2,3,E*%
%TO.N,GND*%
X107950000Y-80518000D03*
%TD*%
%TO.P,Q6,3,E*%
%TO.N,Net-(Q6-Pad3)*%
X114249200Y-95758000D03*
%TO.P,Q6,2,B*%
%TO.N,Net-(Q6-Pad2)*%
X112979200Y-95758000D03*
D18*
%TO.P,Q6,1,C*%
%TO.N,Net-(Q6-Pad1)*%
X111709200Y-95758000D03*
%TD*%
D23*
%TO.P,U1,1,A0*%
%TO.N,GND*%
X134112000Y-78994000D03*
D16*
%TO.P,U1,2,A1*%
X134112000Y-81534000D03*
%TO.P,U1,3,A2*%
X134112000Y-84074000D03*
%TO.P,U1,4,P0*%
%TO.N,/IO_Batt_EN*%
X134112000Y-86614000D03*
%TO.P,U1,5,P1*%
%TO.N,/IO_PsuRelay_EN*%
X134112000Y-89154000D03*
%TO.P,U1,6,P2*%
%TO.N,/IO_Beep*%
X134112000Y-91694000D03*
%TO.P,U1,7,P3*%
%TO.N,/IO_CaseFan_EN*%
X134112000Y-94234000D03*
%TO.P,U1,8,VSS*%
%TO.N,GND*%
X134112000Y-96774000D03*
%TO.P,U1,9,P4*%
%TO.N,/IO_BatteryLed*%
X141732000Y-96774000D03*
%TO.P,U1,10,P5*%
%TO.N,/IO_PsuLed*%
X141732000Y-94234000D03*
%TO.P,U1,11,P6*%
%TO.N,unconnected-(U1-Pad11)*%
X141732000Y-91694000D03*
%TO.P,U1,12,P7*%
%TO.N,unconnected-(U1-Pad12)*%
X141732000Y-89154000D03*
%TO.P,U1,13,~{INT}*%
%TO.N,unconnected-(U1-Pad13)*%
X141732000Y-86614000D03*
%TO.P,U1,14,SCL*%
%TO.N,/I2C_SCL*%
X141732000Y-84074000D03*
%TO.P,U1,15,SDA*%
%TO.N,/I2C_SDA*%
X141732000Y-81534000D03*
%TO.P,U1,16,VDD*%
%TO.N,+3V3*%
X141732000Y-78994000D03*
%TD*%
D11*
%TO.P,J8,1,Pin_1*%
%TO.N,+3V3*%
X140030600Y-128803800D03*
D10*
%TO.P,J8,2,Pin_2*%
%TO.N,GND*%
X140030600Y-126263800D03*
%TO.P,J8,3,Pin_3*%
%TO.N,/RFM95_EN*%
X140030600Y-123723800D03*
%TO.P,J8,4,Pin_4*%
%TO.N,/RFM95_IRQ*%
X140030600Y-121183800D03*
%TO.P,J8,5,Pin_5*%
%TO.N,/SCLK*%
X140030600Y-118643800D03*
%TO.P,J8,6,Pin_6*%
%TO.N,/MISO*%
X140030600Y-116103800D03*
%TO.P,J8,7,Pin_7*%
%TO.N,/MOSI*%
X140030600Y-113563800D03*
%TO.P,J8,8,Pin_8*%
%TO.N,/RFM95_CS*%
X140030600Y-111023800D03*
%TO.P,J8,9,Pin_9*%
%TO.N,/RFM95_RST*%
X140030600Y-108483800D03*
%TD*%
D12*
%TO.P,BZ1,2,+*%
%TO.N,Net-(BZ1-Pad2)*%
X93675200Y-58928000D03*
D26*
%TO.P,BZ1,1,-*%
%TO.N,Net-(BZ1-Pad1)*%
X93675200Y-66528000D03*
%TD*%
D18*
%TO.P,Q4,1,C*%
%TO.N,Net-(Q4-Pad1)*%
X111760000Y-72898000D03*
D17*
%TO.P,Q4,2,B*%
%TO.N,+3V3*%
X113030000Y-72898000D03*
%TO.P,Q4,3,E*%
%TO.N,Net-(Q4-Pad3)*%
X114300000Y-72898000D03*
%TD*%
D16*
%TO.P,R5,2*%
%TO.N,/PsuRelayNC_IN*%
X119989600Y-75996800D03*
D15*
%TO.P,R5,1*%
%TO.N,+5V*%
X127609600Y-75996800D03*
%TD*%
D27*
%TO.P,R13,2*%
%TO.N,/I2C_SCL*%
X172720000Y-88138000D03*
D28*
%TO.P,R13,1*%
%TO.N,+3V3*%
X167640000Y-88138000D03*
%TD*%
D27*
%TO.P,R14,2*%
%TO.N,/I2C_SDA*%
X172720000Y-95758000D03*
D28*
%TO.P,R14,1*%
%TO.N,+3V3*%
X167640000Y-95758000D03*
%TD*%
D16*
%TO.P,R12,2*%
%TO.N,Net-(D4-Pad2)*%
X131064000Y-60198000D03*
D15*
%TO.P,R12,1*%
%TO.N,+12V*%
X131064000Y-52578000D03*
%TD*%
D11*
%TO.P,J9,1,Pin_1*%
%TO.N,unconnected-(J9-Pad1)*%
X115570000Y-128798800D03*
D10*
%TO.P,J9,2,Pin_2*%
%TO.N,unconnected-(J9-Pad2)*%
X115570000Y-126258800D03*
%TO.P,J9,3,Pin_3*%
%TO.N,unconnected-(J9-Pad3)*%
X115570000Y-123718800D03*
%TO.P,J9,4,Pin_4*%
%TO.N,unconnected-(J9-Pad4)*%
X115570000Y-121178800D03*
%TO.P,J9,5,Pin_5*%
%TO.N,unconnected-(J9-Pad5)*%
X115570000Y-118638800D03*
%TD*%
D16*
%TO.P,R15,2*%
%TO.N,Net-(Q6-Pad2)*%
X119989600Y-94284800D03*
D15*
%TO.P,R15,1*%
%TO.N,/IO_CaseFan_EN*%
X127609600Y-94284800D03*
%TD*%
D17*
%TO.P,Q3,3,E*%
%TO.N,GND*%
X107950000Y-88138000D03*
%TO.P,Q3,2,B*%
%TO.N,Net-(C1-Pad1)*%
X106680000Y-88138000D03*
D18*
%TO.P,Q3,1,C*%
%TO.N,Net-(BZ1-Pad2)*%
X105410000Y-88138000D03*
%TD*%
D19*
%TO.P,J2,1,Pin_1*%
%TO.N,+12V*%
X191770000Y-51413000D03*
D20*
%TO.P,J2,2,Pin_2*%
%TO.N,GND*%
X195730000Y-51413000D03*
%TD*%
D16*
%TO.P,R7,2*%
%TO.N,Net-(D2-Pad2)*%
X89662000Y-83718400D03*
D15*
%TO.P,R7,1*%
%TO.N,+5V*%
X97282000Y-83718400D03*
%TD*%
D13*
%TO.P,D1,1,K*%
%TO.N,Net-(BZ1-Pad2)*%
X77978000Y-67310000D03*
D14*
%TO.P,D1,2,A*%
%TO.N,Net-(D1-Pad2)*%
X77978000Y-69850000D03*
%TD*%
D16*
%TO.P,R2,2*%
%TO.N,Net-(Q2-Pad2)*%
X119989600Y-88188800D03*
D15*
%TO.P,R2,1*%
%TO.N,/IO_PsuRelay_EN*%
X127609600Y-88188800D03*
%TD*%
D16*
%TO.P,R8,2*%
%TO.N,Net-(Q4-Pad3)*%
X119989600Y-85140800D03*
D15*
%TO.P,R8,1*%
%TO.N,/IO_Batt_EN*%
X127609600Y-85140800D03*
%TD*%
D16*
%TO.P,R6,2*%
%TO.N,Net-(J3-Pad1)*%
X89662000Y-77520800D03*
D15*
%TO.P,R6,1*%
%TO.N,+5V*%
X97282000Y-77520800D03*
%TD*%
D14*
%TO.P,D2,2,A*%
%TO.N,Net-(D2-Pad2)*%
X77978000Y-76454000D03*
D13*
%TO.P,D2,1,K*%
%TO.N,/IO_BatteryLed*%
X77978000Y-73914000D03*
%TD*%
D24*
%TO.P,D5,2,A*%
%TO.N,GND*%
X107696000Y-56515000D03*
D25*
%TO.P,D5,1,K*%
%TO.N,/BattRelayNC_A*%
X100076000Y-56515000D03*
%TD*%
D19*
%TO.P,J13,1,Pin_1*%
%TO.N,+12V*%
X142240000Y-51413000D03*
D20*
%TO.P,J13,2,Pin_2*%
%TO.N,GND*%
X146200000Y-51413000D03*
%TO.P,J13,3,Pin_3*%
%TO.N,+12V*%
X150160000Y-51413000D03*
%TO.P,J13,4,Pin_4*%
%TO.N,GND*%
X154120000Y-51413000D03*
%TO.P,J13,5,Pin_5*%
%TO.N,+12V*%
X158080000Y-51413000D03*
%TO.P,J13,6,Pin_6*%
%TO.N,GND*%
X162040000Y-51413000D03*
%TO.P,J13,7,Pin_7*%
%TO.N,+12V*%
X166000000Y-51413000D03*
%TO.P,J13,8,Pin_8*%
%TO.N,GND*%
X169960000Y-51413000D03*
%TO.P,J13,9,Pin_9*%
%TO.N,+12V*%
X173920000Y-51413000D03*
%TO.P,J13,10,Pin_10*%
%TO.N,GND*%
X177880000Y-51413000D03*
%TO.P,J13,11,Pin_11*%
%TO.N,+12V*%
X181840000Y-51413000D03*
%TO.P,J13,12,Pin_12*%
%TO.N,GND*%
X185800000Y-51413000D03*
%TD*%
D16*
%TO.P,R4,2*%
%TO.N,Net-(D1-Pad2)*%
X89662000Y-80619600D03*
D15*
%TO.P,R4,1*%
%TO.N,+5V*%
X97282000Y-80619600D03*
%TD*%
D18*
%TO.P,Q5,1,E*%
%TO.N,+12V*%
X105410000Y-72898000D03*
D17*
%TO.P,Q5,2,B*%
%TO.N,Net-(Q4-Pad1)*%
X106680000Y-72898000D03*
%TO.P,Q5,3,C*%
%TO.N,/BattRelayNC_A*%
X107950000Y-72898000D03*
%TD*%
D16*
%TO.P,R11,2*%
%TO.N,Net-(D3-Pad2)*%
X89662000Y-86817200D03*
D15*
%TO.P,R11,1*%
%TO.N,+5V*%
X97282000Y-86817200D03*
%TD*%
D29*
%TO.N,/I2C_SDA*%
X179070000Y-81788000D03*
%TO.N,/I2C_SCL*%
X177800000Y-77978000D03*
D30*
%TO.N,+5V*%
X125730000Y-73533000D03*
X99060000Y-75438000D03*
%TD*%
D31*
%TO.N,/I2C_SDA*%
X110236000Y-51054000D02*
X110236000Y-49530000D01*
X116205000Y-57023000D02*
X110236000Y-51054000D01*
X175577500Y-57023000D02*
X116205000Y-57023000D01*
X179070000Y-60515500D02*
X175577500Y-57023000D01*
X179070000Y-81788000D02*
X179070000Y-60515500D01*
%TO.N,/I2C_SCL*%
X107696000Y-51054000D02*
X107696000Y-49530000D01*
X114935000Y-58293000D02*
X107696000Y-51054000D01*
X177800000Y-61468000D02*
X174625000Y-58293000D01*
X177800000Y-77978000D02*
X177800000Y-61468000D01*
X174625000Y-58293000D02*
X114935000Y-58293000D01*
%TO.N,/I2C_SDA*%
X179070000Y-92348000D02*
X175660000Y-95758000D01*
X179070000Y-81788000D02*
X179070000Y-92348000D01*
%TO.N,/I2C_SCL*%
X177800000Y-85998000D02*
X175660000Y-88138000D01*
X177800000Y-77978000D02*
X177800000Y-85998000D01*
%TO.N,Net-(D7-Pad2)*%
X77978000Y-89657000D02*
X89403000Y-89657000D01*
X89403000Y-89657000D02*
X89662000Y-89916000D01*
%TO.N,/CaseFan_Sink*%
X104140000Y-97028000D02*
X105410000Y-95758000D01*
X81280000Y-97028000D02*
X104140000Y-97028000D01*
X76200000Y-88895000D02*
X76200000Y-91948000D01*
X77978000Y-87117000D02*
X76200000Y-88895000D01*
X76200000Y-91948000D02*
X81280000Y-97028000D01*
%TO.N,/IO_BatteryLed*%
X73660000Y-78232000D02*
X77978000Y-73914000D01*
X78740000Y-99568000D02*
X73660000Y-94488000D01*
X138938000Y-99568000D02*
X78740000Y-99568000D01*
X141732000Y-96774000D02*
X138938000Y-99568000D01*
X73660000Y-94488000D02*
X73660000Y-78232000D01*
%TO.N,/IO_PsuLed*%
X137668000Y-98298000D02*
X141732000Y-94234000D01*
X80010000Y-98298000D02*
X137668000Y-98298000D01*
X74930000Y-83566000D02*
X74930000Y-93218000D01*
X74930000Y-93218000D02*
X80010000Y-98298000D01*
X77978000Y-80518000D02*
X74930000Y-83566000D01*
%TO.N,Net-(Q4-Pad1)*%
X111125000Y-74168000D02*
X111760000Y-73533000D01*
X107315000Y-74168000D02*
X111125000Y-74168000D01*
X106680000Y-73533000D02*
X107315000Y-74168000D01*
X111760000Y-73533000D02*
X111760000Y-72898000D01*
X106680000Y-72898000D02*
X106680000Y-73533000D01*
D32*
%TO.N,/BattRelayNC_A*%
X107950000Y-64389000D02*
X100076000Y-56515000D01*
X107950000Y-72898000D02*
X107950000Y-64389000D01*
D31*
%TO.N,Net-(BZ1-Pad2)*%
X93980000Y-58928000D02*
X93675200Y-58928000D01*
X100330000Y-65278000D02*
X93980000Y-58928000D01*
X100330000Y-83058000D02*
X100330000Y-65278000D01*
X105410000Y-88138000D02*
X100330000Y-83058000D01*
%TO.N,/VSense*%
X148590000Y-90678000D02*
X148590000Y-71628000D01*
X151130000Y-93218000D02*
X148590000Y-90678000D01*
X148590000Y-71628000D02*
X137160000Y-60198000D01*
%TO.N,Net-(D1-Pad2)*%
X78105000Y-69850000D02*
X88874600Y-80619600D01*
X77978000Y-69850000D02*
X78105000Y-69850000D01*
X88874600Y-80619600D02*
X89662000Y-80619600D01*
%TO.N,Net-(BZ1-Pad2)*%
X86360000Y-58928000D02*
X93675200Y-58928000D01*
X77978000Y-67310000D02*
X86360000Y-58928000D01*
%TO.N,/PsuRelayNC_IN*%
X105410000Y-79375000D02*
X105410000Y-80674402D01*
X102870000Y-76835000D02*
X105410000Y-79375000D01*
X102870000Y-62738000D02*
X102870000Y-76835000D01*
X97536000Y-57404000D02*
X102870000Y-62738000D01*
X97536000Y-50292000D02*
X97536000Y-57404000D01*
%TO.N,/CaseFan_Sink*%
X105410000Y-94488000D02*
X105410000Y-95758000D01*
X109855000Y-86868000D02*
X109855000Y-90043000D01*
X101600000Y-81788000D02*
X104775000Y-84963000D01*
X101600000Y-64008000D02*
X101600000Y-81788000D01*
X89916000Y-52324000D02*
X101600000Y-64008000D01*
X104775000Y-84963000D02*
X107950000Y-84963000D01*
X109855000Y-90043000D02*
X105410000Y-94488000D01*
X107950000Y-84963000D02*
X109855000Y-86868000D01*
X89916000Y-49530000D02*
X89916000Y-52324000D01*
%TO.N,/HC12_TX*%
X143510000Y-100838000D02*
X151130000Y-108458000D01*
X99997000Y-100838000D02*
X143510000Y-100838000D01*
X96557000Y-104278000D02*
X99997000Y-100838000D01*
%TO.N,/HC12_RX*%
X142240000Y-102108000D02*
X151130000Y-110998000D01*
X101267000Y-102108000D02*
X142240000Y-102108000D01*
X99097000Y-104278000D02*
X101267000Y-102108000D01*
%TO.N,/MOSI*%
X150164800Y-123698000D02*
X140030600Y-113563800D01*
X165100000Y-118618000D02*
X160020000Y-123698000D01*
X175660000Y-85598000D02*
X166370000Y-85598000D01*
X166370000Y-85598000D02*
X165100000Y-86868000D01*
X165100000Y-86868000D02*
X165100000Y-118618000D01*
X160020000Y-123698000D02*
X150164800Y-123698000D01*
%TO.N,/RFM95_IRQ*%
X168910000Y-122428000D02*
X168910000Y-117748000D01*
X163830000Y-127508000D02*
X168910000Y-122428000D01*
X168910000Y-117748000D02*
X175660000Y-110998000D01*
X146354800Y-127508000D02*
X163830000Y-127508000D01*
X140030600Y-121183800D02*
X146354800Y-127508000D01*
%TO.N,/SCLK*%
X167640000Y-121158000D02*
X167640000Y-108858000D01*
X167640000Y-108858000D02*
X175660000Y-100838000D01*
X162560000Y-126238000D02*
X167640000Y-121158000D01*
X147624800Y-126238000D02*
X162560000Y-126238000D01*
X140030600Y-118643800D02*
X147624800Y-126238000D01*
%TO.N,/MISO*%
X166370000Y-119888000D02*
X166370000Y-107588000D01*
X161290000Y-124968000D02*
X166370000Y-119888000D01*
X148894800Y-124968000D02*
X161290000Y-124968000D01*
X140030600Y-116103800D02*
X148894800Y-124968000D01*
X166370000Y-107588000D02*
X175660000Y-98298000D01*
%TO.N,/RFM95_CS*%
X179070000Y-122428000D02*
X179070000Y-106788000D01*
X140374475Y-132142511D02*
X169355489Y-132142511D01*
X169355489Y-132142511D02*
X179070000Y-122428000D01*
X138049000Y-129817036D02*
X140374475Y-132142511D01*
X138049000Y-113005400D02*
X138049000Y-129817036D01*
X179070000Y-106788000D02*
X175660000Y-103378000D01*
X140081400Y-110973000D02*
X138049000Y-113005400D01*
%TO.N,/VSense*%
X137160000Y-60198000D02*
X134112000Y-60198000D01*
D32*
%TO.N,GND*%
X102616000Y-49530000D02*
X102616000Y-51435000D01*
X102616000Y-51435000D02*
X107696000Y-56515000D01*
D31*
%TO.N,Net-(BZ1-Pad1)*%
X93675200Y-66528000D02*
X93675200Y-71718000D01*
%TO.N,Net-(D2-Pad2)*%
X82397600Y-76454000D02*
X77978000Y-76454000D01*
X89662000Y-83718400D02*
X82397600Y-76454000D01*
D32*
%TO.N,+3V3*%
X141732000Y-78994000D02*
X145542000Y-78994000D01*
D31*
%TO.N,Net-(C1-Pad1)*%
X122642621Y-76478779D02*
X120076600Y-79044800D01*
X122642621Y-68961000D02*
X122642621Y-76478779D01*
%TO.N,Net-(D3-Pad2)*%
X89662000Y-86817200D02*
X85902800Y-83058000D01*
X85902800Y-83058000D02*
X77978000Y-83058000D01*
D32*
%TO.N,/BattRelayNC_A*%
X100076000Y-56515000D02*
X100076000Y-49530000D01*
D31*
%TO.N,/IO_PsuRelay_EN*%
X134112000Y-89154000D02*
X128574800Y-89154000D01*
X128574800Y-89154000D02*
X127609600Y-88188800D01*
%TO.N,/IO_Batt_EN*%
X129082800Y-86614000D02*
X134112000Y-86614000D01*
X127609600Y-85140800D02*
X129082800Y-86614000D01*
%TO.N,Net-(J3-Pad1)*%
X89662000Y-73214400D02*
X91150200Y-71726200D01*
X89662000Y-77520800D02*
X89662000Y-73214400D01*
%TO.N,/IO_Beep*%
X134112000Y-91694000D02*
X128066800Y-91694000D01*
%TO.N,/IO_CaseFan_EN*%
X134112000Y-94234000D02*
X127660400Y-94234000D01*
%TO.N,Net-(Q1-Pad2)*%
X113030000Y-90017600D02*
X113030000Y-88138000D01*
X119989600Y-91236800D02*
X114249200Y-91236800D01*
X114249200Y-91236800D02*
X113030000Y-90017600D01*
%TO.N,Net-(Q6-Pad2)*%
X114227400Y-94284800D02*
X112979200Y-95533000D01*
X119989600Y-94284800D02*
X114227400Y-94284800D01*
%TO.N,/I2C_SDA*%
X175660000Y-95758000D02*
X172720000Y-95758000D01*
%TO.N,/I2C_SCL*%
X172720000Y-88138000D02*
X175660000Y-88138000D01*
%TO.N,Net-(Q6-Pad3)*%
X107529520Y-96832520D02*
X113331082Y-96832520D01*
X106680000Y-95983000D02*
X107529520Y-96832520D01*
X113331082Y-96832520D02*
X114249200Y-95914402D01*
%TO.N,Net-(Q4-Pad3)*%
X119989600Y-85140800D02*
X114300000Y-79451200D01*
X114300000Y-79451200D02*
X114300000Y-72898000D01*
%TO.N,Net-(Q2-Pad2)*%
X117856000Y-86055200D02*
X110947200Y-86055200D01*
X110947200Y-86055200D02*
X106680000Y-81788000D01*
X119989600Y-88188800D02*
X117856000Y-86055200D01*
X106680000Y-81788000D02*
X106680000Y-81040089D01*
%TD*%
M02*
