M48
; DRILL file {KiCad (6.0.2)} date Wed Nov 16 19:52:25 2022
; FORMAT={-:-/ absolute / inch / decimal}
; #@! TF.CreationDate,2022-11-16T19:52:25+00:00
; #@! TF.GenerationSoftware,Kicad,Pcbnew,(6.0.2)
; #@! TF.FileFunction,Plated,1,4,PTH
FMAT,2
INCH
; #@! TA.AperFunction,Plated,PTH,ViaDrill
T1C0.0157
; #@! TA.AperFunction,Plated,PTH,ViaDrill
T2C0.0197
; #@! TA.AperFunction,Plated,PTH,ComponentDrill
T3C0.0276
; #@! TA.AperFunction,Plated,PTH,ComponentDrill
T4C0.0295
; #@! TA.AperFunction,Plated,PTH,ComponentDrill
T5C0.0315
; #@! TA.AperFunction,Plated,PTH,ComponentDrill
T6C0.0354
; #@! TA.AperFunction,Plated,PTH,ComponentDrill
T7C0.0394
; #@! TA.AperFunction,Plated,PTH,ComponentDrill
T8C0.0433
; #@! TA.AperFunction,Plated,PTH,ComponentDrill
T9C0.0469
; #@! TA.AperFunction,Plated,PTH,ComponentDrill
T10C0.0669
%
G90
G05
T1
X7.0Y-3.07
X7.05Y-3.22
T2
X3.9Y-2.97
X4.95Y-2.895
T3
X6.6Y-3.47
X6.6Y-3.77
X6.8Y-3.47
X6.8Y-3.77
T4
X4.15Y-2.87
X4.15Y-3.17
X4.15Y-3.47
X4.15Y-3.77
X4.2Y-2.87
X4.2Y-3.17
X4.2Y-3.47
X4.2Y-3.77
X4.25Y-2.87
X4.25Y-3.17
X4.25Y-3.47
X4.25Y-3.77
X4.398Y-3.77
X4.4Y-2.87
X4.4Y-3.47
X4.448Y-3.77
X4.45Y-2.87
X4.45Y-3.47
X4.498Y-3.77
X4.5Y-2.87
X4.5Y-3.47
T5
X3.53Y-3.052
X3.53Y-3.174
X3.53Y-3.296
X3.53Y-3.418
X3.53Y-3.54
X3.83Y-3.052
X3.83Y-3.174
X3.83Y-3.296
X3.83Y-3.418
X3.83Y-3.54
X4.724Y-2.992
X4.724Y-3.112
X4.724Y-3.232
X4.724Y-3.352
X4.724Y-3.472
X4.724Y-3.592
X4.724Y-3.712
X4.8284Y-2.715
X4.9269Y-2.715
X5.024Y-2.992
X5.024Y-3.112
X5.024Y-3.232
X5.024Y-3.352
X5.024Y-3.472
X5.024Y-3.592
X5.024Y-3.712
X5.16Y-2.07
X5.16Y-2.37
X5.28Y-2.07
X5.28Y-2.37
X5.28Y-3.11
X5.28Y-3.21
X5.28Y-3.31
X5.28Y-3.41
X5.28Y-3.51
X5.28Y-3.61
X5.28Y-3.71
X5.28Y-3.81
X5.4Y-2.07
X5.4Y-2.37
X5.58Y-3.11
X5.58Y-3.21
X5.58Y-3.31
X5.58Y-3.41
X5.58Y-3.51
X5.58Y-3.61
X5.58Y-3.71
X5.58Y-3.81
X5.73Y-3.11
X5.73Y-3.3069
T6
X3.07Y-2.39
X3.07Y-2.49
X3.07Y-2.65
X3.07Y-2.75
X3.07Y-2.91
X3.07Y-3.01
X3.07Y-3.17
X3.07Y-3.27
X3.07Y-3.4298
X3.07Y-3.5298
T7
X3.5885Y-2.824
X3.688Y-2.32
X3.688Y-2.6192
X3.6885Y-2.824
X3.7015Y-4.1054
X3.7015Y-5.0696
X3.7885Y-2.824
X3.8015Y-4.1054
X3.8015Y-5.0696
X3.9015Y-4.1054
X3.9015Y-5.0696
X4.0015Y-4.1054
X4.0015Y-5.0696
X4.1015Y-4.1054
X4.1015Y-5.0696
X4.55Y-4.6708
X4.55Y-4.7708
X4.55Y-4.8708
X4.55Y-4.9708
X4.55Y-5.0708
X5.513Y-4.271
X5.513Y-4.371
X5.513Y-4.471
X5.513Y-4.571
X5.513Y-4.671
X5.513Y-4.771
X5.513Y-4.871
X5.513Y-4.971
X5.513Y-5.071
X5.95Y-3.37
X5.95Y-3.47
X5.95Y-3.57
X5.95Y-3.67
X5.95Y-3.77
X5.95Y-3.87
X5.95Y-3.97
X5.95Y-4.07
X5.95Y-4.17
X5.95Y-4.27
X5.95Y-4.37
X5.95Y-4.47
X5.95Y-4.57
X5.95Y-4.67
X5.95Y-4.77
X6.9157Y-3.37
X6.9157Y-3.47
X6.9157Y-3.57
X6.9157Y-3.67
X6.9157Y-3.77
X6.9157Y-3.87
X6.9157Y-3.97
X6.9157Y-4.07
X6.9157Y-4.17
X6.9157Y-4.27
X6.9157Y-4.37
X6.9157Y-4.47
X6.9157Y-4.57
X6.9157Y-4.67
X6.9157Y-4.77
X7.8807Y-2.52
X7.8807Y-4.0948
X8.55Y-2.52
X8.55Y-4.0948
T8
X3.94Y-2.225
X4.24Y-2.225
X8.3Y-1.97
X8.3Y-2.27
T9
X3.44Y-1.95
X3.54Y-1.95
X3.64Y-1.95
X3.74Y-1.95
X3.84Y-1.95
X3.94Y-1.95
X4.04Y-1.95
X4.14Y-1.95
X4.24Y-1.95
X4.34Y-1.95
X4.44Y-1.95
X4.54Y-1.95
T10
X5.6Y-2.0241
X5.7559Y-2.0241
X5.9118Y-2.0241
X6.0677Y-2.0241
X6.2236Y-2.0241
X6.3795Y-2.0241
X6.5354Y-2.0241
X6.6913Y-2.0241
X6.8472Y-2.0241
X7.0031Y-2.0241
X7.1591Y-2.0241
X7.315Y-2.0241
X7.55Y-2.0241
X7.7059Y-2.0241
X7.95Y-2.02
X8.1059Y-2.02
T0
M30
