%TF.GenerationSoftware,KiCad,Pcbnew,(6.0.2)*%
%TF.CreationDate,2022-11-16T19:52:16+00:00*%
%TF.ProjectId,greenhouse-control-unit,67726565-6e68-46f7-9573-652d636f6e74,2*%
%TF.SameCoordinates,Original*%
%TF.FileFunction,Legend,Top*%
%TF.FilePolarity,Positive*%
%FSLAX46Y46*%
G04 Gerber Fmt 4.6, Leading zero omitted, Abs format (unit mm)*
G04 Created by KiCad (PCBNEW (6.0.2)) date 2022-11-16 19:52:16*
%MOMM*%
%LPD*%
G01*
G04 APERTURE LIST*
%ADD10C,0.300000*%
%ADD11C,0.150000*%
%ADD12C,0.100000*%
%ADD13C,0.250000*%
%ADD14C,0.120000*%
G04 APERTURE END LIST*
D10*
X182162142Y-130726571D02*
X182162142Y-129226571D01*
X183019285Y-130726571D01*
X183019285Y-129226571D01*
X183733571Y-130726571D02*
X183733571Y-129726571D01*
X183733571Y-129226571D02*
X183662142Y-129298000D01*
X183733571Y-129369428D01*
X183805000Y-129298000D01*
X183733571Y-129226571D01*
X183733571Y-129369428D01*
X185090714Y-130655142D02*
X184947857Y-130726571D01*
X184662142Y-130726571D01*
X184519285Y-130655142D01*
X184447857Y-130583714D01*
X184376428Y-130440857D01*
X184376428Y-130012285D01*
X184447857Y-129869428D01*
X184519285Y-129798000D01*
X184662142Y-129726571D01*
X184947857Y-129726571D01*
X185090714Y-129798000D01*
X185733571Y-130726571D02*
X185733571Y-129226571D01*
X185876428Y-130155142D02*
X186305000Y-130726571D01*
X186305000Y-129726571D02*
X185733571Y-130298000D01*
X188590714Y-129940857D02*
X188805000Y-130012285D01*
X188876428Y-130083714D01*
X188947857Y-130226571D01*
X188947857Y-130440857D01*
X188876428Y-130583714D01*
X188805000Y-130655142D01*
X188662142Y-130726571D01*
X188090714Y-130726571D01*
X188090714Y-129226571D01*
X188590714Y-129226571D01*
X188733571Y-129298000D01*
X188805000Y-129369428D01*
X188876428Y-129512285D01*
X188876428Y-129655142D01*
X188805000Y-129798000D01*
X188733571Y-129869428D01*
X188590714Y-129940857D01*
X188090714Y-129940857D01*
X189805000Y-130726571D02*
X189662142Y-130655142D01*
X189590714Y-130583714D01*
X189519285Y-130440857D01*
X189519285Y-130012285D01*
X189590714Y-129869428D01*
X189662142Y-129798000D01*
X189805000Y-129726571D01*
X190019285Y-129726571D01*
X190162142Y-129798000D01*
X190233571Y-129869428D01*
X190305000Y-130012285D01*
X190305000Y-130440857D01*
X190233571Y-130583714D01*
X190162142Y-130655142D01*
X190019285Y-130726571D01*
X189805000Y-130726571D01*
X191162142Y-130726571D02*
X191019285Y-130655142D01*
X190947857Y-130512285D01*
X190947857Y-129226571D01*
X191519285Y-129726571D02*
X192090714Y-129726571D01*
X191733571Y-129226571D02*
X191733571Y-130512285D01*
X191805000Y-130655142D01*
X191947857Y-130726571D01*
X192090714Y-130726571D01*
X192805000Y-130726571D02*
X192662142Y-130655142D01*
X192590714Y-130583714D01*
X192519285Y-130440857D01*
X192519285Y-130012285D01*
X192590714Y-129869428D01*
X192662142Y-129798000D01*
X192805000Y-129726571D01*
X193019285Y-129726571D01*
X193162142Y-129798000D01*
X193233571Y-129869428D01*
X193305000Y-130012285D01*
X193305000Y-130440857D01*
X193233571Y-130583714D01*
X193162142Y-130655142D01*
X193019285Y-130726571D01*
X192805000Y-130726571D01*
X193947857Y-129726571D02*
X193947857Y-130726571D01*
X193947857Y-129869428D02*
X194019285Y-129798000D01*
X194162142Y-129726571D01*
X194376428Y-129726571D01*
X194519285Y-129798000D01*
X194590714Y-129940857D01*
X194590714Y-130726571D01*
X182947857Y-126758000D02*
X182805000Y-126686571D01*
X182590714Y-126686571D01*
X182376428Y-126758000D01*
X182233571Y-126900857D01*
X182162142Y-127043714D01*
X182090714Y-127329428D01*
X182090714Y-127543714D01*
X182162142Y-127829428D01*
X182233571Y-127972285D01*
X182376428Y-128115142D01*
X182590714Y-128186571D01*
X182733571Y-128186571D01*
X182947857Y-128115142D01*
X183019285Y-128043714D01*
X183019285Y-127543714D01*
X182733571Y-127543714D01*
X183662142Y-128186571D02*
X183662142Y-127186571D01*
X183662142Y-127472285D02*
X183733571Y-127329428D01*
X183805000Y-127258000D01*
X183947857Y-127186571D01*
X184090714Y-127186571D01*
X185162142Y-128115142D02*
X185019285Y-128186571D01*
X184733571Y-128186571D01*
X184590714Y-128115142D01*
X184519285Y-127972285D01*
X184519285Y-127400857D01*
X184590714Y-127258000D01*
X184733571Y-127186571D01*
X185019285Y-127186571D01*
X185162142Y-127258000D01*
X185233571Y-127400857D01*
X185233571Y-127543714D01*
X184519285Y-127686571D01*
X186447857Y-128115142D02*
X186305000Y-128186571D01*
X186019285Y-128186571D01*
X185876428Y-128115142D01*
X185805000Y-127972285D01*
X185805000Y-127400857D01*
X185876428Y-127258000D01*
X186019285Y-127186571D01*
X186305000Y-127186571D01*
X186447857Y-127258000D01*
X186519285Y-127400857D01*
X186519285Y-127543714D01*
X185805000Y-127686571D01*
X187162142Y-127186571D02*
X187162142Y-128186571D01*
X187162142Y-127329428D02*
X187233571Y-127258000D01*
X187376428Y-127186571D01*
X187590714Y-127186571D01*
X187733571Y-127258000D01*
X187805000Y-127400857D01*
X187805000Y-128186571D01*
X188519285Y-128186571D02*
X188519285Y-126686571D01*
X189162142Y-128186571D02*
X189162142Y-127400857D01*
X189090714Y-127258000D01*
X188947857Y-127186571D01*
X188733571Y-127186571D01*
X188590714Y-127258000D01*
X188519285Y-127329428D01*
X190090714Y-128186571D02*
X189947857Y-128115142D01*
X189876428Y-128043714D01*
X189805000Y-127900857D01*
X189805000Y-127472285D01*
X189876428Y-127329428D01*
X189947857Y-127258000D01*
X190090714Y-127186571D01*
X190305000Y-127186571D01*
X190447857Y-127258000D01*
X190519285Y-127329428D01*
X190590714Y-127472285D01*
X190590714Y-127900857D01*
X190519285Y-128043714D01*
X190447857Y-128115142D01*
X190305000Y-128186571D01*
X190090714Y-128186571D01*
X191876428Y-127186571D02*
X191876428Y-128186571D01*
X191233571Y-127186571D02*
X191233571Y-127972285D01*
X191305000Y-128115142D01*
X191447857Y-128186571D01*
X191662142Y-128186571D01*
X191805000Y-128115142D01*
X191876428Y-128043714D01*
X192519285Y-128115142D02*
X192662142Y-128186571D01*
X192947857Y-128186571D01*
X193090714Y-128115142D01*
X193162142Y-127972285D01*
X193162142Y-127900857D01*
X193090714Y-127758000D01*
X192947857Y-127686571D01*
X192733571Y-127686571D01*
X192590714Y-127615142D01*
X192519285Y-127472285D01*
X192519285Y-127400857D01*
X192590714Y-127258000D01*
X192733571Y-127186571D01*
X192947857Y-127186571D01*
X193090714Y-127258000D01*
X194376428Y-128115142D02*
X194233571Y-128186571D01*
X193947857Y-128186571D01*
X193805000Y-128115142D01*
X193733571Y-127972285D01*
X193733571Y-127400857D01*
X193805000Y-127258000D01*
X193947857Y-127186571D01*
X194233571Y-127186571D01*
X194376428Y-127258000D01*
X194447857Y-127400857D01*
X194447857Y-127543714D01*
X193733571Y-127686571D01*
X197090714Y-128043714D02*
X197019285Y-128115142D01*
X196805000Y-128186571D01*
X196662142Y-128186571D01*
X196447857Y-128115142D01*
X196305000Y-127972285D01*
X196233571Y-127829428D01*
X196162142Y-127543714D01*
X196162142Y-127329428D01*
X196233571Y-127043714D01*
X196305000Y-126900857D01*
X196447857Y-126758000D01*
X196662142Y-126686571D01*
X196805000Y-126686571D01*
X197019285Y-126758000D01*
X197090714Y-126829428D01*
X197947857Y-128186571D02*
X197805000Y-128115142D01*
X197733571Y-128043714D01*
X197662142Y-127900857D01*
X197662142Y-127472285D01*
X197733571Y-127329428D01*
X197805000Y-127258000D01*
X197947857Y-127186571D01*
X198162142Y-127186571D01*
X198305000Y-127258000D01*
X198376428Y-127329428D01*
X198447857Y-127472285D01*
X198447857Y-127900857D01*
X198376428Y-128043714D01*
X198305000Y-128115142D01*
X198162142Y-128186571D01*
X197947857Y-128186571D01*
X199090714Y-127186571D02*
X199090714Y-128186571D01*
X199090714Y-127329428D02*
X199162142Y-127258000D01*
X199305000Y-127186571D01*
X199519285Y-127186571D01*
X199662142Y-127258000D01*
X199733571Y-127400857D01*
X199733571Y-128186571D01*
X200233571Y-127186571D02*
X200805000Y-127186571D01*
X200447857Y-126686571D02*
X200447857Y-127972285D01*
X200519285Y-128115142D01*
X200662142Y-128186571D01*
X200805000Y-128186571D01*
X201305000Y-128186571D02*
X201305000Y-127186571D01*
X201305000Y-127472285D02*
X201376428Y-127329428D01*
X201447857Y-127258000D01*
X201590714Y-127186571D01*
X201733571Y-127186571D01*
X202447857Y-128186571D02*
X202305000Y-128115142D01*
X202233571Y-128043714D01*
X202162142Y-127900857D01*
X202162142Y-127472285D01*
X202233571Y-127329428D01*
X202305000Y-127258000D01*
X202447857Y-127186571D01*
X202662142Y-127186571D01*
X202805000Y-127258000D01*
X202876428Y-127329428D01*
X202947857Y-127472285D01*
X202947857Y-127900857D01*
X202876428Y-128043714D01*
X202805000Y-128115142D01*
X202662142Y-128186571D01*
X202447857Y-128186571D01*
X203805000Y-128186571D02*
X203662142Y-128115142D01*
X203590714Y-127972285D01*
X203590714Y-126686571D01*
X205519285Y-126686571D02*
X205519285Y-127900857D01*
X205590714Y-128043714D01*
X205662142Y-128115142D01*
X205805000Y-128186571D01*
X206090714Y-128186571D01*
X206233571Y-128115142D01*
X206305000Y-128043714D01*
X206376428Y-127900857D01*
X206376428Y-126686571D01*
X207090714Y-127186571D02*
X207090714Y-128186571D01*
X207090714Y-127329428D02*
X207162142Y-127258000D01*
X207305000Y-127186571D01*
X207519285Y-127186571D01*
X207662142Y-127258000D01*
X207733571Y-127400857D01*
X207733571Y-128186571D01*
X208447857Y-128186571D02*
X208447857Y-127186571D01*
X208447857Y-126686571D02*
X208376428Y-126758000D01*
X208447857Y-126829428D01*
X208519285Y-126758000D01*
X208447857Y-126686571D01*
X208447857Y-126829428D01*
X208947857Y-127186571D02*
X209519285Y-127186571D01*
X209162142Y-126686571D02*
X209162142Y-127972285D01*
X209233571Y-128115142D01*
X209376428Y-128186571D01*
X209519285Y-128186571D01*
D11*
X116840000Y-111032425D02*
X114300000Y-111032425D01*
X114300000Y-111032425D02*
X114300000Y-108492425D01*
X114300000Y-108492425D02*
X116840000Y-108492425D01*
X116840000Y-108492425D02*
X116840000Y-111032425D01*
X116468026Y-109796850D02*
G75*
G03*
X116468026Y-109796850I-898026J0D01*
G01*
D12*
X198247000Y-105918000D02*
X198247000Y-62103000D01*
X219075000Y-105918000D02*
X198247000Y-105918000D01*
X219075000Y-62103000D02*
X219075000Y-105918000D01*
X198247000Y-62103000D02*
X219075000Y-62103000D01*
D11*
X105051826Y-125773425D02*
G75*
G03*
X105051826Y-125773425I-898026J0D01*
G01*
X92144300Y-102322200D02*
X106088900Y-102322200D01*
X106088900Y-102322200D02*
X106088900Y-130668600D01*
X106088900Y-130668600D02*
X92144300Y-130668600D01*
X92144300Y-130668600D02*
X92144300Y-102322200D01*
X105423800Y-127009000D02*
X102883800Y-127009000D01*
X102883800Y-127009000D02*
X102883800Y-124469000D01*
X102883800Y-124469000D02*
X105423800Y-124469000D01*
X105423800Y-124469000D02*
X105423800Y-127009000D01*
X94992600Y-73355200D02*
X89811000Y-73355200D01*
X141960600Y-106573800D02*
X113690400Y-106573800D01*
X113690400Y-106573800D02*
X113690400Y-130729200D01*
X113690400Y-130729200D02*
X141960600Y-130729200D01*
X141960600Y-130729200D02*
X141960600Y-106573800D01*
D13*
X207428400Y-103280071D02*
X207714114Y-103280071D01*
X207856971Y-103351500D01*
X207999828Y-103494357D01*
X208071257Y-103780071D01*
X208071257Y-104280071D01*
X207999828Y-104565785D01*
X207856971Y-104708642D01*
X207714114Y-104780071D01*
X207428400Y-104780071D01*
X207285542Y-104708642D01*
X207142685Y-104565785D01*
X207071257Y-104280071D01*
X207071257Y-103780071D01*
X207142685Y-103494357D01*
X207285542Y-103351500D01*
X207428400Y-103280071D01*
X208714114Y-103280071D02*
X208714114Y-104494357D01*
X208785542Y-104637214D01*
X208856971Y-104708642D01*
X208999828Y-104780071D01*
X209285542Y-104780071D01*
X209428400Y-104708642D01*
X209499828Y-104637214D01*
X209571257Y-104494357D01*
X209571257Y-103280071D01*
X210071257Y-103280071D02*
X210928400Y-103280071D01*
X210499828Y-104780071D02*
X210499828Y-103280071D01*
X200698857Y-59884571D02*
X199984571Y-59884571D01*
X199913142Y-60598857D01*
X199984571Y-60527428D01*
X200127428Y-60456000D01*
X200484571Y-60456000D01*
X200627428Y-60527428D01*
X200698857Y-60598857D01*
X200770285Y-60741714D01*
X200770285Y-61098857D01*
X200698857Y-61241714D01*
X200627428Y-61313142D01*
X200484571Y-61384571D01*
X200127428Y-61384571D01*
X199984571Y-61313142D01*
X199913142Y-61241714D01*
X201198857Y-59884571D02*
X201698857Y-61384571D01*
X202198857Y-59884571D01*
X203841714Y-61384571D02*
X203841714Y-59884571D01*
X203841714Y-60456000D02*
X203984571Y-60384571D01*
X204270285Y-60384571D01*
X204413142Y-60456000D01*
X204484571Y-60527428D01*
X204556000Y-60670285D01*
X204556000Y-61098857D01*
X204484571Y-61241714D01*
X204413142Y-61313142D01*
X204270285Y-61384571D01*
X203984571Y-61384571D01*
X203841714Y-61313142D01*
X205841714Y-60384571D02*
X205841714Y-61384571D01*
X205198857Y-60384571D02*
X205198857Y-61170285D01*
X205270285Y-61313142D01*
X205413142Y-61384571D01*
X205627428Y-61384571D01*
X205770285Y-61313142D01*
X205841714Y-61241714D01*
X207198857Y-61313142D02*
X207056000Y-61384571D01*
X206770285Y-61384571D01*
X206627428Y-61313142D01*
X206556000Y-61241714D01*
X206484571Y-61098857D01*
X206484571Y-60670285D01*
X206556000Y-60527428D01*
X206627428Y-60456000D01*
X206770285Y-60384571D01*
X207056000Y-60384571D01*
X207198857Y-60456000D01*
X207841714Y-61384571D02*
X207841714Y-59884571D01*
X207984571Y-60813142D02*
X208413142Y-61384571D01*
X208413142Y-60384571D02*
X207841714Y-60956000D01*
X210198857Y-61384571D02*
X210198857Y-60384571D01*
X210198857Y-60527428D02*
X210270285Y-60456000D01*
X210413142Y-60384571D01*
X210627428Y-60384571D01*
X210770285Y-60456000D01*
X210841714Y-60598857D01*
X210841714Y-61384571D01*
X210841714Y-60598857D02*
X210913142Y-60456000D01*
X211056000Y-60384571D01*
X211270285Y-60384571D01*
X211413142Y-60456000D01*
X211484571Y-60598857D01*
X211484571Y-61384571D01*
X212413142Y-61384571D02*
X212270285Y-61313142D01*
X212198857Y-61241714D01*
X212127428Y-61098857D01*
X212127428Y-60670285D01*
X212198857Y-60527428D01*
X212270285Y-60456000D01*
X212413142Y-60384571D01*
X212627428Y-60384571D01*
X212770285Y-60456000D01*
X212841714Y-60527428D01*
X212913142Y-60670285D01*
X212913142Y-61098857D01*
X212841714Y-61241714D01*
X212770285Y-61313142D01*
X212627428Y-61384571D01*
X212413142Y-61384571D01*
X214198857Y-61384571D02*
X214198857Y-59884571D01*
X214198857Y-61313142D02*
X214056000Y-61384571D01*
X213770285Y-61384571D01*
X213627428Y-61313142D01*
X213556000Y-61241714D01*
X213484571Y-61098857D01*
X213484571Y-60670285D01*
X213556000Y-60527428D01*
X213627428Y-60456000D01*
X213770285Y-60384571D01*
X214056000Y-60384571D01*
X214198857Y-60456000D01*
X215556000Y-60384571D02*
X215556000Y-61384571D01*
X214913142Y-60384571D02*
X214913142Y-61170285D01*
X214984571Y-61313142D01*
X215127428Y-61384571D01*
X215341714Y-61384571D01*
X215484571Y-61313142D01*
X215556000Y-61241714D01*
X216484571Y-61384571D02*
X216341714Y-61313142D01*
X216270285Y-61170285D01*
X216270285Y-59884571D01*
X217627428Y-61313142D02*
X217484571Y-61384571D01*
X217198857Y-61384571D01*
X217056000Y-61313142D01*
X216984571Y-61170285D01*
X216984571Y-60598857D01*
X217056000Y-60456000D01*
X217198857Y-60384571D01*
X217484571Y-60384571D01*
X217627428Y-60456000D01*
X217698857Y-60598857D01*
X217698857Y-60741714D01*
X216984571Y-60884571D01*
X208020285Y-64686571D02*
X208020285Y-63186571D01*
X208734571Y-64686571D02*
X208734571Y-63186571D01*
X209591714Y-64686571D01*
X209591714Y-63186571D01*
D11*
%TO.C,J10*%
X157687142Y-78363771D02*
X158020476Y-78363771D01*
X158163333Y-78887580D02*
X157687142Y-78887580D01*
X157687142Y-77887580D01*
X158163333Y-77887580D01*
X158544285Y-78839961D02*
X158687142Y-78887580D01*
X158925238Y-78887580D01*
X159020476Y-78839961D01*
X159068095Y-78792342D01*
X159115714Y-78697104D01*
X159115714Y-78601866D01*
X159068095Y-78506628D01*
X159020476Y-78459009D01*
X158925238Y-78411390D01*
X158734761Y-78363771D01*
X158639523Y-78316152D01*
X158591904Y-78268533D01*
X158544285Y-78173295D01*
X158544285Y-78078057D01*
X158591904Y-77982819D01*
X158639523Y-77935200D01*
X158734761Y-77887580D01*
X158972857Y-77887580D01*
X159115714Y-77935200D01*
X159544285Y-78887580D02*
X159544285Y-77887580D01*
X159925238Y-77887580D01*
X160020476Y-77935200D01*
X160068095Y-77982819D01*
X160115714Y-78078057D01*
X160115714Y-78220914D01*
X160068095Y-78316152D01*
X160020476Y-78363771D01*
X159925238Y-78411390D01*
X159544285Y-78411390D01*
X160449047Y-77887580D02*
X161068095Y-77887580D01*
X160734761Y-78268533D01*
X160877619Y-78268533D01*
X160972857Y-78316152D01*
X161020476Y-78363771D01*
X161068095Y-78459009D01*
X161068095Y-78697104D01*
X161020476Y-78792342D01*
X160972857Y-78839961D01*
X160877619Y-78887580D01*
X160591904Y-78887580D01*
X160496666Y-78839961D01*
X160449047Y-78792342D01*
X161449047Y-77982819D02*
X161496666Y-77935200D01*
X161591904Y-77887580D01*
X161830000Y-77887580D01*
X161925238Y-77935200D01*
X161972857Y-77982819D01*
X162020476Y-78078057D01*
X162020476Y-78173295D01*
X161972857Y-78316152D01*
X161401428Y-78887580D01*
X162020476Y-78887580D01*
X163210952Y-78887580D02*
X163210952Y-77887580D01*
X163449047Y-77887580D01*
X163591904Y-77935200D01*
X163687142Y-78030438D01*
X163734761Y-78125676D01*
X163782380Y-78316152D01*
X163782380Y-78459009D01*
X163734761Y-78649485D01*
X163687142Y-78744723D01*
X163591904Y-78839961D01*
X163449047Y-78887580D01*
X163210952Y-78887580D01*
X164591904Y-78839961D02*
X164496666Y-78887580D01*
X164306190Y-78887580D01*
X164210952Y-78839961D01*
X164163333Y-78744723D01*
X164163333Y-78363771D01*
X164210952Y-78268533D01*
X164306190Y-78220914D01*
X164496666Y-78220914D01*
X164591904Y-78268533D01*
X164639523Y-78363771D01*
X164639523Y-78459009D01*
X164163333Y-78554247D01*
X164972857Y-78220914D02*
X165210952Y-78887580D01*
X165449047Y-78220914D01*
X165830000Y-78887580D02*
X165830000Y-77887580D01*
X166401428Y-78887580D02*
X165972857Y-78316152D01*
X166401428Y-77887580D02*
X165830000Y-78459009D01*
X166830000Y-78887580D02*
X166830000Y-78220914D01*
X166830000Y-77887580D02*
X166782380Y-77935200D01*
X166830000Y-77982819D01*
X166877619Y-77935200D01*
X166830000Y-77887580D01*
X166830000Y-77982819D01*
X167163333Y-78220914D02*
X167544285Y-78220914D01*
X167306190Y-77887580D02*
X167306190Y-78744723D01*
X167353809Y-78839961D01*
X167449047Y-78887580D01*
X167544285Y-78887580D01*
X168496666Y-77887580D02*
X168830000Y-78887580D01*
X169163333Y-77887580D01*
X170020476Y-78887580D02*
X169449047Y-78887580D01*
X169734761Y-78887580D02*
X169734761Y-77887580D01*
X169639523Y-78030438D01*
X169544285Y-78125676D01*
X169449047Y-78173295D01*
%TO.C,J3*%
X99129666Y-71181980D02*
X99129666Y-71896266D01*
X99082047Y-72039123D01*
X98986809Y-72134361D01*
X98843952Y-72181980D01*
X98748714Y-72181980D01*
X99510619Y-71181980D02*
X100129666Y-71181980D01*
X99796333Y-71562933D01*
X99939190Y-71562933D01*
X100034428Y-71610552D01*
X100082047Y-71658171D01*
X100129666Y-71753409D01*
X100129666Y-71991504D01*
X100082047Y-72086742D01*
X100034428Y-72134361D01*
X99939190Y-72181980D01*
X99653476Y-72181980D01*
X99558238Y-72134361D01*
X99510619Y-72086742D01*
X86439304Y-71658171D02*
X86582161Y-71705790D01*
X86629780Y-71753409D01*
X86677400Y-71848647D01*
X86677400Y-71991504D01*
X86629780Y-72086742D01*
X86582161Y-72134361D01*
X86486923Y-72181980D01*
X86105971Y-72181980D01*
X86105971Y-71181980D01*
X86439304Y-71181980D01*
X86534542Y-71229600D01*
X86582161Y-71277219D01*
X86629780Y-71372457D01*
X86629780Y-71467695D01*
X86582161Y-71562933D01*
X86534542Y-71610552D01*
X86439304Y-71658171D01*
X86105971Y-71658171D01*
X87486923Y-72134361D02*
X87391685Y-72181980D01*
X87201209Y-72181980D01*
X87105971Y-72134361D01*
X87058352Y-72039123D01*
X87058352Y-71658171D01*
X87105971Y-71562933D01*
X87201209Y-71515314D01*
X87391685Y-71515314D01*
X87486923Y-71562933D01*
X87534542Y-71658171D01*
X87534542Y-71753409D01*
X87058352Y-71848647D01*
X88344066Y-72134361D02*
X88248828Y-72181980D01*
X88058352Y-72181980D01*
X87963114Y-72134361D01*
X87915495Y-72039123D01*
X87915495Y-71658171D01*
X87963114Y-71562933D01*
X88058352Y-71515314D01*
X88248828Y-71515314D01*
X88344066Y-71562933D01*
X88391685Y-71658171D01*
X88391685Y-71753409D01*
X87915495Y-71848647D01*
X88820257Y-71515314D02*
X88820257Y-72515314D01*
X88820257Y-71562933D02*
X88915495Y-71515314D01*
X89105971Y-71515314D01*
X89201209Y-71562933D01*
X89248828Y-71610552D01*
X89296447Y-71705790D01*
X89296447Y-71991504D01*
X89248828Y-72086742D01*
X89201209Y-72134361D01*
X89105971Y-72181980D01*
X88915495Y-72181980D01*
X88820257Y-72134361D01*
X89936695Y-74350571D02*
X90270028Y-74350571D01*
X90412885Y-74874380D02*
X89936695Y-74874380D01*
X89936695Y-73874380D01*
X90412885Y-73874380D01*
X90841457Y-74207714D02*
X90841457Y-74874380D01*
X90841457Y-74302952D02*
X90889076Y-74255333D01*
X90984314Y-74207714D01*
X91127171Y-74207714D01*
X91222409Y-74255333D01*
X91270028Y-74350571D01*
X91270028Y-74874380D01*
X92174790Y-74874380D02*
X92174790Y-74350571D01*
X92127171Y-74255333D01*
X92031933Y-74207714D01*
X91841457Y-74207714D01*
X91746219Y-74255333D01*
X92174790Y-74826761D02*
X92079552Y-74874380D01*
X91841457Y-74874380D01*
X91746219Y-74826761D01*
X91698600Y-74731523D01*
X91698600Y-74636285D01*
X91746219Y-74541047D01*
X91841457Y-74493428D01*
X92079552Y-74493428D01*
X92174790Y-74445809D01*
X92650980Y-74874380D02*
X92650980Y-73874380D01*
X92650980Y-74255333D02*
X92746219Y-74207714D01*
X92936695Y-74207714D01*
X93031933Y-74255333D01*
X93079552Y-74302952D01*
X93127171Y-74398190D01*
X93127171Y-74683904D01*
X93079552Y-74779142D01*
X93031933Y-74826761D01*
X92936695Y-74874380D01*
X92746219Y-74874380D01*
X92650980Y-74826761D01*
X93698600Y-74874380D02*
X93603361Y-74826761D01*
X93555742Y-74731523D01*
X93555742Y-73874380D01*
X94460504Y-74826761D02*
X94365266Y-74874380D01*
X94174790Y-74874380D01*
X94079552Y-74826761D01*
X94031933Y-74731523D01*
X94031933Y-74350571D01*
X94079552Y-74255333D01*
X94174790Y-74207714D01*
X94365266Y-74207714D01*
X94460504Y-74255333D01*
X94508123Y-74350571D01*
X94508123Y-74445809D01*
X94031933Y-74541047D01*
%TO.C,J6*%
X199959066Y-101267880D02*
X199959066Y-101982166D01*
X199911447Y-102125023D01*
X199816209Y-102220261D01*
X199673352Y-102267880D01*
X199578114Y-102267880D01*
X200863828Y-101267880D02*
X200673352Y-101267880D01*
X200578114Y-101315500D01*
X200530495Y-101363119D01*
X200435257Y-101505976D01*
X200387638Y-101696452D01*
X200387638Y-102077404D01*
X200435257Y-102172642D01*
X200482876Y-102220261D01*
X200578114Y-102267880D01*
X200768590Y-102267880D01*
X200863828Y-102220261D01*
X200911447Y-102172642D01*
X200959066Y-102077404D01*
X200959066Y-101839309D01*
X200911447Y-101744071D01*
X200863828Y-101696452D01*
X200768590Y-101648833D01*
X200578114Y-101648833D01*
X200482876Y-101696452D01*
X200435257Y-101744071D01*
X200387638Y-101839309D01*
%TO.C,D4*%
X81615595Y-61920380D02*
X81615595Y-60920380D01*
X81853690Y-60920380D01*
X81996547Y-60968000D01*
X82091785Y-61063238D01*
X82139404Y-61158476D01*
X82187023Y-61348952D01*
X82187023Y-61491809D01*
X82139404Y-61682285D01*
X82091785Y-61777523D01*
X81996547Y-61872761D01*
X81853690Y-61920380D01*
X81615595Y-61920380D01*
X83044166Y-61253714D02*
X83044166Y-61920380D01*
X82806071Y-60872761D02*
X82567976Y-61587047D01*
X83187023Y-61587047D01*
X81615595Y-63444380D02*
X81615595Y-62444380D01*
X81996547Y-62444380D01*
X82091785Y-62492000D01*
X82139404Y-62539619D01*
X82187023Y-62634857D01*
X82187023Y-62777714D01*
X82139404Y-62872952D01*
X82091785Y-62920571D01*
X81996547Y-62968190D01*
X81615595Y-62968190D01*
X82758452Y-63444380D02*
X82663214Y-63396761D01*
X82615595Y-63349142D01*
X82567976Y-63253904D01*
X82567976Y-62968190D01*
X82615595Y-62872952D01*
X82663214Y-62825333D01*
X82758452Y-62777714D01*
X82901309Y-62777714D01*
X82996547Y-62825333D01*
X83044166Y-62872952D01*
X83091785Y-62968190D01*
X83091785Y-63253904D01*
X83044166Y-63349142D01*
X82996547Y-63396761D01*
X82901309Y-63444380D01*
X82758452Y-63444380D01*
X83425119Y-62777714D02*
X83615595Y-63444380D01*
X83806071Y-62968190D01*
X83996547Y-63444380D01*
X84187023Y-62777714D01*
X84948928Y-63396761D02*
X84853690Y-63444380D01*
X84663214Y-63444380D01*
X84567976Y-63396761D01*
X84520357Y-63301523D01*
X84520357Y-62920571D01*
X84567976Y-62825333D01*
X84663214Y-62777714D01*
X84853690Y-62777714D01*
X84948928Y-62825333D01*
X84996547Y-62920571D01*
X84996547Y-63015809D01*
X84520357Y-63111047D01*
X85425119Y-63444380D02*
X85425119Y-62777714D01*
X85425119Y-62968190D02*
X85472738Y-62872952D01*
X85520357Y-62825333D01*
X85615595Y-62777714D01*
X85710833Y-62777714D01*
%TO.C,J5*%
X216723066Y-65961880D02*
X216723066Y-66676166D01*
X216675447Y-66819023D01*
X216580209Y-66914261D01*
X216437352Y-66961880D01*
X216342114Y-66961880D01*
X217675447Y-65961880D02*
X217199257Y-65961880D01*
X217151638Y-66438071D01*
X217199257Y-66390452D01*
X217294495Y-66342833D01*
X217532590Y-66342833D01*
X217627828Y-66390452D01*
X217675447Y-66438071D01*
X217723066Y-66533309D01*
X217723066Y-66771404D01*
X217675447Y-66866642D01*
X217627828Y-66914261D01*
X217532590Y-66961880D01*
X217294495Y-66961880D01*
X217199257Y-66914261D01*
X217151638Y-66866642D01*
%TO.C,J4*%
X216977066Y-101267880D02*
X216977066Y-101982166D01*
X216929447Y-102125023D01*
X216834209Y-102220261D01*
X216691352Y-102267880D01*
X216596114Y-102267880D01*
X217881828Y-101601214D02*
X217881828Y-102267880D01*
X217643733Y-101220261D02*
X217405638Y-101934547D01*
X218024685Y-101934547D01*
%TO.C,D3*%
X81615595Y-81732380D02*
X81615595Y-80732380D01*
X81853690Y-80732380D01*
X81996547Y-80780000D01*
X82091785Y-80875238D01*
X82139404Y-80970476D01*
X82187023Y-81160952D01*
X82187023Y-81303809D01*
X82139404Y-81494285D01*
X82091785Y-81589523D01*
X81996547Y-81684761D01*
X81853690Y-81732380D01*
X81615595Y-81732380D01*
X82520357Y-80732380D02*
X83139404Y-80732380D01*
X82806071Y-81113333D01*
X82948928Y-81113333D01*
X83044166Y-81160952D01*
X83091785Y-81208571D01*
X83139404Y-81303809D01*
X83139404Y-81541904D01*
X83091785Y-81637142D01*
X83044166Y-81684761D01*
X82948928Y-81732380D01*
X82663214Y-81732380D01*
X82567976Y-81684761D01*
X82520357Y-81637142D01*
X81615595Y-83256380D02*
X81615595Y-82256380D01*
X81996547Y-82256380D01*
X82091785Y-82304000D01*
X82139404Y-82351619D01*
X82187023Y-82446857D01*
X82187023Y-82589714D01*
X82139404Y-82684952D01*
X82091785Y-82732571D01*
X81996547Y-82780190D01*
X81615595Y-82780190D01*
X82567976Y-83208761D02*
X82710833Y-83256380D01*
X82948928Y-83256380D01*
X83044166Y-83208761D01*
X83091785Y-83161142D01*
X83139404Y-83065904D01*
X83139404Y-82970666D01*
X83091785Y-82875428D01*
X83044166Y-82827809D01*
X82948928Y-82780190D01*
X82758452Y-82732571D01*
X82663214Y-82684952D01*
X82615595Y-82637333D01*
X82567976Y-82542095D01*
X82567976Y-82446857D01*
X82615595Y-82351619D01*
X82663214Y-82304000D01*
X82758452Y-82256380D01*
X82996547Y-82256380D01*
X83139404Y-82304000D01*
X83567976Y-82256380D02*
X83567976Y-83065904D01*
X83615595Y-83161142D01*
X83663214Y-83208761D01*
X83758452Y-83256380D01*
X83948928Y-83256380D01*
X84044166Y-83208761D01*
X84091785Y-83161142D01*
X84139404Y-83065904D01*
X84139404Y-82256380D01*
%TO.C,R16*%
X129685023Y-82545180D02*
X129351690Y-82068990D01*
X129113595Y-82545180D02*
X129113595Y-81545180D01*
X129494547Y-81545180D01*
X129589785Y-81592800D01*
X129637404Y-81640419D01*
X129685023Y-81735657D01*
X129685023Y-81878514D01*
X129637404Y-81973752D01*
X129589785Y-82021371D01*
X129494547Y-82068990D01*
X129113595Y-82068990D01*
X130637404Y-82545180D02*
X130065976Y-82545180D01*
X130351690Y-82545180D02*
X130351690Y-81545180D01*
X130256452Y-81688038D01*
X130161214Y-81783276D01*
X130065976Y-81830895D01*
X131494547Y-81545180D02*
X131304071Y-81545180D01*
X131208833Y-81592800D01*
X131161214Y-81640419D01*
X131065976Y-81783276D01*
X131018357Y-81973752D01*
X131018357Y-82354704D01*
X131065976Y-82449942D01*
X131113595Y-82497561D01*
X131208833Y-82545180D01*
X131399309Y-82545180D01*
X131494547Y-82497561D01*
X131542166Y-82449942D01*
X131589785Y-82354704D01*
X131589785Y-82116609D01*
X131542166Y-82021371D01*
X131494547Y-81973752D01*
X131399309Y-81926133D01*
X131208833Y-81926133D01*
X131113595Y-81973752D01*
X131065976Y-82021371D01*
X131018357Y-82116609D01*
%TO.C,J12*%
X93170476Y-125690380D02*
X93170476Y-126404666D01*
X93122857Y-126547523D01*
X93027619Y-126642761D01*
X92884761Y-126690380D01*
X92789523Y-126690380D01*
X94170476Y-126690380D02*
X93599047Y-126690380D01*
X93884761Y-126690380D02*
X93884761Y-125690380D01*
X93789523Y-125833238D01*
X93694285Y-125928476D01*
X93599047Y-125976095D01*
X94551428Y-125785619D02*
X94599047Y-125738000D01*
X94694285Y-125690380D01*
X94932380Y-125690380D01*
X95027619Y-125738000D01*
X95075238Y-125785619D01*
X95122857Y-125880857D01*
X95122857Y-125976095D01*
X95075238Y-126118952D01*
X94503809Y-126690380D01*
X95122857Y-126690380D01*
%TO.C,Q1*%
X112934761Y-85125619D02*
X112839523Y-85078000D01*
X112744285Y-84982761D01*
X112601428Y-84839904D01*
X112506190Y-84792285D01*
X112410952Y-84792285D01*
X112458571Y-85030380D02*
X112363333Y-84982761D01*
X112268095Y-84887523D01*
X112220476Y-84697047D01*
X112220476Y-84363714D01*
X112268095Y-84173238D01*
X112363333Y-84078000D01*
X112458571Y-84030380D01*
X112649047Y-84030380D01*
X112744285Y-84078000D01*
X112839523Y-84173238D01*
X112887142Y-84363714D01*
X112887142Y-84697047D01*
X112839523Y-84887523D01*
X112744285Y-84982761D01*
X112649047Y-85030380D01*
X112458571Y-85030380D01*
X113839523Y-85030380D02*
X113268095Y-85030380D01*
X113553809Y-85030380D02*
X113553809Y-84030380D01*
X113458571Y-84173238D01*
X113363333Y-84268476D01*
X113268095Y-84316095D01*
%TO.C,R1*%
X129812023Y-91689180D02*
X129478690Y-91212990D01*
X129240595Y-91689180D02*
X129240595Y-90689180D01*
X129621547Y-90689180D01*
X129716785Y-90736800D01*
X129764404Y-90784419D01*
X129812023Y-90879657D01*
X129812023Y-91022514D01*
X129764404Y-91117752D01*
X129716785Y-91165371D01*
X129621547Y-91212990D01*
X129240595Y-91212990D01*
X130764404Y-91689180D02*
X130192976Y-91689180D01*
X130478690Y-91689180D02*
X130478690Y-90689180D01*
X130383452Y-90832038D01*
X130288214Y-90927276D01*
X130192976Y-90974895D01*
%TO.C,R9*%
X133945333Y-51125380D02*
X133612000Y-50649190D01*
X133373904Y-51125380D02*
X133373904Y-50125380D01*
X133754857Y-50125380D01*
X133850095Y-50173000D01*
X133897714Y-50220619D01*
X133945333Y-50315857D01*
X133945333Y-50458714D01*
X133897714Y-50553952D01*
X133850095Y-50601571D01*
X133754857Y-50649190D01*
X133373904Y-50649190D01*
X134421523Y-51125380D02*
X134612000Y-51125380D01*
X134707238Y-51077761D01*
X134754857Y-51030142D01*
X134850095Y-50887285D01*
X134897714Y-50696809D01*
X134897714Y-50315857D01*
X134850095Y-50220619D01*
X134802476Y-50173000D01*
X134707238Y-50125380D01*
X134516761Y-50125380D01*
X134421523Y-50173000D01*
X134373904Y-50220619D01*
X134326285Y-50315857D01*
X134326285Y-50553952D01*
X134373904Y-50649190D01*
X134421523Y-50696809D01*
X134516761Y-50744428D01*
X134707238Y-50744428D01*
X134802476Y-50696809D01*
X134850095Y-50649190D01*
X134897714Y-50553952D01*
%TO.C,C2*%
X145375333Y-77573142D02*
X145327714Y-77620761D01*
X145184857Y-77668380D01*
X145089619Y-77668380D01*
X144946761Y-77620761D01*
X144851523Y-77525523D01*
X144803904Y-77430285D01*
X144756285Y-77239809D01*
X144756285Y-77096952D01*
X144803904Y-76906476D01*
X144851523Y-76811238D01*
X144946761Y-76716000D01*
X145089619Y-76668380D01*
X145184857Y-76668380D01*
X145327714Y-76716000D01*
X145375333Y-76763619D01*
X145756285Y-76763619D02*
X145803904Y-76716000D01*
X145899142Y-76668380D01*
X146137238Y-76668380D01*
X146232476Y-76716000D01*
X146280095Y-76763619D01*
X146327714Y-76858857D01*
X146327714Y-76954095D01*
X146280095Y-77096952D01*
X145708666Y-77668380D01*
X146327714Y-77668380D01*
%TO.C,J1*%
X203524666Y-57364380D02*
X203524666Y-58078666D01*
X203477047Y-58221523D01*
X203381809Y-58316761D01*
X203238952Y-58364380D01*
X203143714Y-58364380D01*
X204524666Y-58364380D02*
X203953238Y-58364380D01*
X204238952Y-58364380D02*
X204238952Y-57364380D01*
X204143714Y-57507238D01*
X204048476Y-57602476D01*
X203953238Y-57650095D01*
%TO.C,J14*%
X100536476Y-53300380D02*
X100536476Y-54014666D01*
X100488857Y-54157523D01*
X100393619Y-54252761D01*
X100250761Y-54300380D01*
X100155523Y-54300380D01*
X101536476Y-54300380D02*
X100965047Y-54300380D01*
X101250761Y-54300380D02*
X101250761Y-53300380D01*
X101155523Y-53443238D01*
X101060285Y-53538476D01*
X100965047Y-53586095D01*
X102393619Y-53633714D02*
X102393619Y-54300380D01*
X102155523Y-53252761D02*
X101917428Y-53967047D01*
X102536476Y-53967047D01*
%TO.C,R10*%
X136517142Y-51125380D02*
X136183809Y-50649190D01*
X135945714Y-51125380D02*
X135945714Y-50125380D01*
X136326666Y-50125380D01*
X136421904Y-50173000D01*
X136469523Y-50220619D01*
X136517142Y-50315857D01*
X136517142Y-50458714D01*
X136469523Y-50553952D01*
X136421904Y-50601571D01*
X136326666Y-50649190D01*
X135945714Y-50649190D01*
X137469523Y-51125380D02*
X136898095Y-51125380D01*
X137183809Y-51125380D02*
X137183809Y-50125380D01*
X137088571Y-50268238D01*
X136993333Y-50363476D01*
X136898095Y-50411095D01*
X138088571Y-50125380D02*
X138183809Y-50125380D01*
X138279047Y-50173000D01*
X138326666Y-50220619D01*
X138374285Y-50315857D01*
X138421904Y-50506333D01*
X138421904Y-50744428D01*
X138374285Y-50934904D01*
X138326666Y-51030142D01*
X138279047Y-51077761D01*
X138183809Y-51125380D01*
X138088571Y-51125380D01*
X137993333Y-51077761D01*
X137945714Y-51030142D01*
X137898095Y-50934904D01*
X137850476Y-50744428D01*
X137850476Y-50506333D01*
X137898095Y-50315857D01*
X137945714Y-50220619D01*
X137993333Y-50173000D01*
X138088571Y-50125380D01*
%TO.C,R3*%
X129685023Y-79598780D02*
X129351690Y-79122590D01*
X129113595Y-79598780D02*
X129113595Y-78598780D01*
X129494547Y-78598780D01*
X129589785Y-78646400D01*
X129637404Y-78694019D01*
X129685023Y-78789257D01*
X129685023Y-78932114D01*
X129637404Y-79027352D01*
X129589785Y-79074971D01*
X129494547Y-79122590D01*
X129113595Y-79122590D01*
X130018357Y-78598780D02*
X130637404Y-78598780D01*
X130304071Y-78979733D01*
X130446928Y-78979733D01*
X130542166Y-79027352D01*
X130589785Y-79074971D01*
X130637404Y-79170209D01*
X130637404Y-79408304D01*
X130589785Y-79503542D01*
X130542166Y-79551161D01*
X130446928Y-79598780D01*
X130161214Y-79598780D01*
X130065976Y-79551161D01*
X130018357Y-79503542D01*
%TO.C,Q7*%
X106584761Y-92749619D02*
X106489523Y-92702000D01*
X106394285Y-92606761D01*
X106251428Y-92463904D01*
X106156190Y-92416285D01*
X106060952Y-92416285D01*
X106108571Y-92654380D02*
X106013333Y-92606761D01*
X105918095Y-92511523D01*
X105870476Y-92321047D01*
X105870476Y-91987714D01*
X105918095Y-91797238D01*
X106013333Y-91702000D01*
X106108571Y-91654380D01*
X106299047Y-91654380D01*
X106394285Y-91702000D01*
X106489523Y-91797238D01*
X106537142Y-91987714D01*
X106537142Y-92321047D01*
X106489523Y-92511523D01*
X106394285Y-92606761D01*
X106299047Y-92654380D01*
X106108571Y-92654380D01*
X106870476Y-91654380D02*
X107537142Y-91654380D01*
X107108571Y-92654380D01*
%TO.C,C1*%
X123725954Y-64918142D02*
X123678335Y-64965761D01*
X123535478Y-65013380D01*
X123440240Y-65013380D01*
X123297382Y-64965761D01*
X123202144Y-64870523D01*
X123154525Y-64775285D01*
X123106906Y-64584809D01*
X123106906Y-64441952D01*
X123154525Y-64251476D01*
X123202144Y-64156238D01*
X123297382Y-64061000D01*
X123440240Y-64013380D01*
X123535478Y-64013380D01*
X123678335Y-64061000D01*
X123725954Y-64108619D01*
X124678335Y-65013380D02*
X124106906Y-65013380D01*
X124392621Y-65013380D02*
X124392621Y-64013380D01*
X124297382Y-64156238D01*
X124202144Y-64251476D01*
X124106906Y-64299095D01*
%TO.C,J7*%
X199959066Y-65961880D02*
X199959066Y-66676166D01*
X199911447Y-66819023D01*
X199816209Y-66914261D01*
X199673352Y-66961880D01*
X199578114Y-66961880D01*
X200340019Y-65961880D02*
X201006685Y-65961880D01*
X200578114Y-66961880D01*
%TO.C,D7*%
X81615595Y-88336380D02*
X81615595Y-87336380D01*
X81853690Y-87336380D01*
X81996547Y-87384000D01*
X82091785Y-87479238D01*
X82139404Y-87574476D01*
X82187023Y-87764952D01*
X82187023Y-87907809D01*
X82139404Y-88098285D01*
X82091785Y-88193523D01*
X81996547Y-88288761D01*
X81853690Y-88336380D01*
X81615595Y-88336380D01*
X82520357Y-87336380D02*
X83187023Y-87336380D01*
X82758452Y-88336380D01*
X82187023Y-89765142D02*
X82139404Y-89812761D01*
X81996547Y-89860380D01*
X81901309Y-89860380D01*
X81758452Y-89812761D01*
X81663214Y-89717523D01*
X81615595Y-89622285D01*
X81567976Y-89431809D01*
X81567976Y-89288952D01*
X81615595Y-89098476D01*
X81663214Y-89003238D01*
X81758452Y-88908000D01*
X81901309Y-88860380D01*
X81996547Y-88860380D01*
X82139404Y-88908000D01*
X82187023Y-88955619D01*
X83044166Y-89860380D02*
X83044166Y-89336571D01*
X82996547Y-89241333D01*
X82901309Y-89193714D01*
X82710833Y-89193714D01*
X82615595Y-89241333D01*
X83044166Y-89812761D02*
X82948928Y-89860380D01*
X82710833Y-89860380D01*
X82615595Y-89812761D01*
X82567976Y-89717523D01*
X82567976Y-89622285D01*
X82615595Y-89527047D01*
X82710833Y-89479428D01*
X82948928Y-89479428D01*
X83044166Y-89431809D01*
X83472738Y-89812761D02*
X83567976Y-89860380D01*
X83758452Y-89860380D01*
X83853690Y-89812761D01*
X83901309Y-89717523D01*
X83901309Y-89669904D01*
X83853690Y-89574666D01*
X83758452Y-89527047D01*
X83615595Y-89527047D01*
X83520357Y-89479428D01*
X83472738Y-89384190D01*
X83472738Y-89336571D01*
X83520357Y-89241333D01*
X83615595Y-89193714D01*
X83758452Y-89193714D01*
X83853690Y-89241333D01*
X84710833Y-89812761D02*
X84615595Y-89860380D01*
X84425119Y-89860380D01*
X84329880Y-89812761D01*
X84282261Y-89717523D01*
X84282261Y-89336571D01*
X84329880Y-89241333D01*
X84425119Y-89193714D01*
X84615595Y-89193714D01*
X84710833Y-89241333D01*
X84758452Y-89336571D01*
X84758452Y-89431809D01*
X84282261Y-89527047D01*
X85806071Y-89193714D02*
X86187023Y-89193714D01*
X85948928Y-89860380D02*
X85948928Y-89003238D01*
X85996547Y-88908000D01*
X86091785Y-88860380D01*
X86187023Y-88860380D01*
X86948928Y-89860380D02*
X86948928Y-89336571D01*
X86901309Y-89241333D01*
X86806071Y-89193714D01*
X86615595Y-89193714D01*
X86520357Y-89241333D01*
X86948928Y-89812761D02*
X86853690Y-89860380D01*
X86615595Y-89860380D01*
X86520357Y-89812761D01*
X86472738Y-89717523D01*
X86472738Y-89622285D01*
X86520357Y-89527047D01*
X86615595Y-89479428D01*
X86853690Y-89479428D01*
X86948928Y-89431809D01*
X87425119Y-89193714D02*
X87425119Y-89860380D01*
X87425119Y-89288952D02*
X87472738Y-89241333D01*
X87567976Y-89193714D01*
X87710833Y-89193714D01*
X87806071Y-89241333D01*
X87853690Y-89336571D01*
X87853690Y-89860380D01*
%TO.C,D6*%
X210081904Y-47950380D02*
X210081904Y-46950380D01*
X210320000Y-46950380D01*
X210462857Y-46998000D01*
X210558095Y-47093238D01*
X210605714Y-47188476D01*
X210653333Y-47378952D01*
X210653333Y-47521809D01*
X210605714Y-47712285D01*
X210558095Y-47807523D01*
X210462857Y-47902761D01*
X210320000Y-47950380D01*
X210081904Y-47950380D01*
X211510476Y-46950380D02*
X211320000Y-46950380D01*
X211224761Y-46998000D01*
X211177142Y-47045619D01*
X211081904Y-47188476D01*
X211034285Y-47378952D01*
X211034285Y-47759904D01*
X211081904Y-47855142D01*
X211129523Y-47902761D01*
X211224761Y-47950380D01*
X211415238Y-47950380D01*
X211510476Y-47902761D01*
X211558095Y-47855142D01*
X211605714Y-47759904D01*
X211605714Y-47521809D01*
X211558095Y-47426571D01*
X211510476Y-47378952D01*
X211415238Y-47331333D01*
X211224761Y-47331333D01*
X211129523Y-47378952D01*
X211081904Y-47426571D01*
X211034285Y-47521809D01*
X212463095Y-58110380D02*
X212463095Y-57110380D01*
X213034523Y-58110380D02*
X212605952Y-57538952D01*
X213034523Y-57110380D02*
X212463095Y-57681809D01*
%TO.C,J11*%
X93170476Y-106005380D02*
X93170476Y-106719666D01*
X93122857Y-106862523D01*
X93027619Y-106957761D01*
X92884761Y-107005380D01*
X92789523Y-107005380D01*
X94170476Y-107005380D02*
X93599047Y-107005380D01*
X93884761Y-107005380D02*
X93884761Y-106005380D01*
X93789523Y-106148238D01*
X93694285Y-106243476D01*
X93599047Y-106291095D01*
X95122857Y-107005380D02*
X94551428Y-107005380D01*
X94837142Y-107005380D02*
X94837142Y-106005380D01*
X94741904Y-106148238D01*
X94646666Y-106243476D01*
X94551428Y-106291095D01*
X92443595Y-101656980D02*
X92443595Y-100656980D01*
X92443595Y-101133171D02*
X93015023Y-101133171D01*
X93015023Y-101656980D02*
X93015023Y-100656980D01*
X94062642Y-101561742D02*
X94015023Y-101609361D01*
X93872166Y-101656980D01*
X93776928Y-101656980D01*
X93634071Y-101609361D01*
X93538833Y-101514123D01*
X93491214Y-101418885D01*
X93443595Y-101228409D01*
X93443595Y-101085552D01*
X93491214Y-100895076D01*
X93538833Y-100799838D01*
X93634071Y-100704600D01*
X93776928Y-100656980D01*
X93872166Y-100656980D01*
X94015023Y-100704600D01*
X94062642Y-100752219D01*
X94491214Y-101276028D02*
X95253119Y-101276028D01*
X96253119Y-101656980D02*
X95681690Y-101656980D01*
X95967404Y-101656980D02*
X95967404Y-100656980D01*
X95872166Y-100799838D01*
X95776928Y-100895076D01*
X95681690Y-100942695D01*
X96634071Y-100752219D02*
X96681690Y-100704600D01*
X96776928Y-100656980D01*
X97015023Y-100656980D01*
X97110261Y-100704600D01*
X97157880Y-100752219D01*
X97205500Y-100847457D01*
X97205500Y-100942695D01*
X97157880Y-101085552D01*
X96586452Y-101656980D01*
X97205500Y-101656980D01*
X98967404Y-101656980D02*
X98634071Y-101180790D01*
X98395976Y-101656980D02*
X98395976Y-100656980D01*
X98776928Y-100656980D01*
X98872166Y-100704600D01*
X98919785Y-100752219D01*
X98967404Y-100847457D01*
X98967404Y-100990314D01*
X98919785Y-101085552D01*
X98872166Y-101133171D01*
X98776928Y-101180790D01*
X98395976Y-101180790D01*
X99729309Y-101133171D02*
X99395976Y-101133171D01*
X99395976Y-101656980D02*
X99395976Y-100656980D01*
X99872166Y-100656980D01*
X101015023Y-101656980D02*
X101015023Y-100990314D01*
X101015023Y-101085552D02*
X101062642Y-101037933D01*
X101157880Y-100990314D01*
X101300738Y-100990314D01*
X101395976Y-101037933D01*
X101443595Y-101133171D01*
X101443595Y-101656980D01*
X101443595Y-101133171D02*
X101491214Y-101037933D01*
X101586452Y-100990314D01*
X101729309Y-100990314D01*
X101824547Y-101037933D01*
X101872166Y-101133171D01*
X101872166Y-101656980D01*
X102491214Y-101656980D02*
X102395976Y-101609361D01*
X102348357Y-101561742D01*
X102300738Y-101466504D01*
X102300738Y-101180790D01*
X102348357Y-101085552D01*
X102395976Y-101037933D01*
X102491214Y-100990314D01*
X102634071Y-100990314D01*
X102729309Y-101037933D01*
X102776928Y-101085552D01*
X102824547Y-101180790D01*
X102824547Y-101466504D01*
X102776928Y-101561742D01*
X102729309Y-101609361D01*
X102634071Y-101656980D01*
X102491214Y-101656980D01*
X103681690Y-101656980D02*
X103681690Y-100656980D01*
X103681690Y-101609361D02*
X103586452Y-101656980D01*
X103395976Y-101656980D01*
X103300738Y-101609361D01*
X103253119Y-101561742D01*
X103205500Y-101466504D01*
X103205500Y-101180790D01*
X103253119Y-101085552D01*
X103300738Y-101037933D01*
X103395976Y-100990314D01*
X103586452Y-100990314D01*
X103681690Y-101037933D01*
X104586452Y-100990314D02*
X104586452Y-101656980D01*
X104157880Y-100990314D02*
X104157880Y-101514123D01*
X104205500Y-101609361D01*
X104300738Y-101656980D01*
X104443595Y-101656980D01*
X104538833Y-101609361D01*
X104586452Y-101561742D01*
X105205500Y-101656980D02*
X105110261Y-101609361D01*
X105062642Y-101514123D01*
X105062642Y-100656980D01*
X105967404Y-101609361D02*
X105872166Y-101656980D01*
X105681690Y-101656980D01*
X105586452Y-101609361D01*
X105538833Y-101514123D01*
X105538833Y-101133171D01*
X105586452Y-101037933D01*
X105681690Y-100990314D01*
X105872166Y-100990314D01*
X105967404Y-101037933D01*
X106015023Y-101133171D01*
X106015023Y-101228409D01*
X105538833Y-101323647D01*
%TO.C,R17*%
X99332023Y-90368380D02*
X98998690Y-89892190D01*
X98760595Y-90368380D02*
X98760595Y-89368380D01*
X99141547Y-89368380D01*
X99236785Y-89416000D01*
X99284404Y-89463619D01*
X99332023Y-89558857D01*
X99332023Y-89701714D01*
X99284404Y-89796952D01*
X99236785Y-89844571D01*
X99141547Y-89892190D01*
X98760595Y-89892190D01*
X100284404Y-90368380D02*
X99712976Y-90368380D01*
X99998690Y-90368380D02*
X99998690Y-89368380D01*
X99903452Y-89511238D01*
X99808214Y-89606476D01*
X99712976Y-89654095D01*
X100617738Y-89368380D02*
X101284404Y-89368380D01*
X100855833Y-90368380D01*
%TO.C,Q2*%
X106584761Y-77505619D02*
X106489523Y-77458000D01*
X106394285Y-77362761D01*
X106251428Y-77219904D01*
X106156190Y-77172285D01*
X106060952Y-77172285D01*
X106108571Y-77410380D02*
X106013333Y-77362761D01*
X105918095Y-77267523D01*
X105870476Y-77077047D01*
X105870476Y-76743714D01*
X105918095Y-76553238D01*
X106013333Y-76458000D01*
X106108571Y-76410380D01*
X106299047Y-76410380D01*
X106394285Y-76458000D01*
X106489523Y-76553238D01*
X106537142Y-76743714D01*
X106537142Y-77077047D01*
X106489523Y-77267523D01*
X106394285Y-77362761D01*
X106299047Y-77410380D01*
X106108571Y-77410380D01*
X106918095Y-76505619D02*
X106965714Y-76458000D01*
X107060952Y-76410380D01*
X107299047Y-76410380D01*
X107394285Y-76458000D01*
X107441904Y-76505619D01*
X107489523Y-76600857D01*
X107489523Y-76696095D01*
X107441904Y-76838952D01*
X106870476Y-77410380D01*
X107489523Y-77410380D01*
%TO.C,Q6*%
X112883961Y-92745619D02*
X112788723Y-92698000D01*
X112693485Y-92602761D01*
X112550628Y-92459904D01*
X112455390Y-92412285D01*
X112360152Y-92412285D01*
X112407771Y-92650380D02*
X112312533Y-92602761D01*
X112217295Y-92507523D01*
X112169676Y-92317047D01*
X112169676Y-91983714D01*
X112217295Y-91793238D01*
X112312533Y-91698000D01*
X112407771Y-91650380D01*
X112598247Y-91650380D01*
X112693485Y-91698000D01*
X112788723Y-91793238D01*
X112836342Y-91983714D01*
X112836342Y-92317047D01*
X112788723Y-92507523D01*
X112693485Y-92602761D01*
X112598247Y-92650380D01*
X112407771Y-92650380D01*
X113693485Y-91650380D02*
X113503009Y-91650380D01*
X113407771Y-91698000D01*
X113360152Y-91745619D01*
X113264914Y-91888476D01*
X113217295Y-92078952D01*
X113217295Y-92459904D01*
X113264914Y-92555142D01*
X113312533Y-92602761D01*
X113407771Y-92650380D01*
X113598247Y-92650380D01*
X113693485Y-92602761D01*
X113741104Y-92555142D01*
X113788723Y-92459904D01*
X113788723Y-92221809D01*
X113741104Y-92126571D01*
X113693485Y-92078952D01*
X113598247Y-92031333D01*
X113407771Y-92031333D01*
X113312533Y-92078952D01*
X113264914Y-92126571D01*
X113217295Y-92221809D01*
%TO.C,U1*%
X137160095Y-76160380D02*
X137160095Y-76969904D01*
X137207714Y-77065142D01*
X137255333Y-77112761D01*
X137350571Y-77160380D01*
X137541047Y-77160380D01*
X137636285Y-77112761D01*
X137683904Y-77065142D01*
X137731523Y-76969904D01*
X137731523Y-76160380D01*
X138731523Y-77160380D02*
X138160095Y-77160380D01*
X138445809Y-77160380D02*
X138445809Y-76160380D01*
X138350571Y-76303238D01*
X138255333Y-76398476D01*
X138160095Y-76446095D01*
%TO.C,J8*%
X136826666Y-128256180D02*
X136826666Y-128970466D01*
X136779047Y-129113323D01*
X136683809Y-129208561D01*
X136540952Y-129256180D01*
X136445714Y-129256180D01*
X137445714Y-128684752D02*
X137350476Y-128637133D01*
X137302857Y-128589514D01*
X137255238Y-128494276D01*
X137255238Y-128446657D01*
X137302857Y-128351419D01*
X137350476Y-128303800D01*
X137445714Y-128256180D01*
X137636190Y-128256180D01*
X137731428Y-128303800D01*
X137779047Y-128351419D01*
X137826666Y-128446657D01*
X137826666Y-128494276D01*
X137779047Y-128589514D01*
X137731428Y-128637133D01*
X137636190Y-128684752D01*
X137445714Y-128684752D01*
X137350476Y-128732371D01*
X137302857Y-128779990D01*
X137255238Y-128875228D01*
X137255238Y-129065704D01*
X137302857Y-129160942D01*
X137350476Y-129208561D01*
X137445714Y-129256180D01*
X137636190Y-129256180D01*
X137731428Y-129208561D01*
X137779047Y-129160942D01*
X137826666Y-129065704D01*
X137826666Y-128875228D01*
X137779047Y-128779990D01*
X137731428Y-128732371D01*
X137636190Y-128684752D01*
X121216240Y-105761180D02*
X120882906Y-105284990D01*
X120644811Y-105761180D02*
X120644811Y-104761180D01*
X121025763Y-104761180D01*
X121121002Y-104808800D01*
X121168621Y-104856419D01*
X121216240Y-104951657D01*
X121216240Y-105094514D01*
X121168621Y-105189752D01*
X121121002Y-105237371D01*
X121025763Y-105284990D01*
X120644811Y-105284990D01*
X121978144Y-105237371D02*
X121644811Y-105237371D01*
X121644811Y-105761180D02*
X121644811Y-104761180D01*
X122121002Y-104761180D01*
X122501954Y-105761180D02*
X122501954Y-104761180D01*
X122835287Y-105475466D01*
X123168621Y-104761180D01*
X123168621Y-105761180D01*
X123692430Y-105761180D02*
X123882906Y-105761180D01*
X123978144Y-105713561D01*
X124025763Y-105665942D01*
X124121002Y-105523085D01*
X124168621Y-105332609D01*
X124168621Y-104951657D01*
X124121002Y-104856419D01*
X124073383Y-104808800D01*
X123978144Y-104761180D01*
X123787668Y-104761180D01*
X123692430Y-104808800D01*
X123644811Y-104856419D01*
X123597192Y-104951657D01*
X123597192Y-105189752D01*
X123644811Y-105284990D01*
X123692430Y-105332609D01*
X123787668Y-105380228D01*
X123978144Y-105380228D01*
X124073383Y-105332609D01*
X124121002Y-105284990D01*
X124168621Y-105189752D01*
X124501954Y-105761180D02*
X125025763Y-105094514D01*
X124501954Y-105094514D02*
X125025763Y-105761180D01*
X126644811Y-105761180D02*
X126168621Y-105761180D01*
X126168621Y-104761180D01*
X127121002Y-105761180D02*
X127025763Y-105713561D01*
X126978144Y-105665942D01*
X126930525Y-105570704D01*
X126930525Y-105284990D01*
X126978144Y-105189752D01*
X127025763Y-105142133D01*
X127121002Y-105094514D01*
X127263859Y-105094514D01*
X127359097Y-105142133D01*
X127406716Y-105189752D01*
X127454335Y-105284990D01*
X127454335Y-105570704D01*
X127406716Y-105665942D01*
X127359097Y-105713561D01*
X127263859Y-105761180D01*
X127121002Y-105761180D01*
X128454335Y-105761180D02*
X128121002Y-105284990D01*
X127882906Y-105761180D02*
X127882906Y-104761180D01*
X128263859Y-104761180D01*
X128359097Y-104808800D01*
X128406716Y-104856419D01*
X128454335Y-104951657D01*
X128454335Y-105094514D01*
X128406716Y-105189752D01*
X128359097Y-105237371D01*
X128263859Y-105284990D01*
X127882906Y-105284990D01*
X129311478Y-105761180D02*
X129311478Y-105237371D01*
X129263859Y-105142133D01*
X129168621Y-105094514D01*
X128978144Y-105094514D01*
X128882906Y-105142133D01*
X129311478Y-105713561D02*
X129216240Y-105761180D01*
X128978144Y-105761180D01*
X128882906Y-105713561D01*
X128835287Y-105618323D01*
X128835287Y-105523085D01*
X128882906Y-105427847D01*
X128978144Y-105380228D01*
X129216240Y-105380228D01*
X129311478Y-105332609D01*
X130549573Y-105761180D02*
X130549573Y-105094514D01*
X130549573Y-105189752D02*
X130597192Y-105142133D01*
X130692430Y-105094514D01*
X130835287Y-105094514D01*
X130930525Y-105142133D01*
X130978144Y-105237371D01*
X130978144Y-105761180D01*
X130978144Y-105237371D02*
X131025763Y-105142133D01*
X131121002Y-105094514D01*
X131263859Y-105094514D01*
X131359097Y-105142133D01*
X131406716Y-105237371D01*
X131406716Y-105761180D01*
X132025763Y-105761180D02*
X131930525Y-105713561D01*
X131882906Y-105665942D01*
X131835287Y-105570704D01*
X131835287Y-105284990D01*
X131882906Y-105189752D01*
X131930525Y-105142133D01*
X132025763Y-105094514D01*
X132168621Y-105094514D01*
X132263859Y-105142133D01*
X132311478Y-105189752D01*
X132359097Y-105284990D01*
X132359097Y-105570704D01*
X132311478Y-105665942D01*
X132263859Y-105713561D01*
X132168621Y-105761180D01*
X132025763Y-105761180D01*
X133216240Y-105761180D02*
X133216240Y-104761180D01*
X133216240Y-105713561D02*
X133121002Y-105761180D01*
X132930525Y-105761180D01*
X132835287Y-105713561D01*
X132787668Y-105665942D01*
X132740049Y-105570704D01*
X132740049Y-105284990D01*
X132787668Y-105189752D01*
X132835287Y-105142133D01*
X132930525Y-105094514D01*
X133121002Y-105094514D01*
X133216240Y-105142133D01*
X134121002Y-105094514D02*
X134121002Y-105761180D01*
X133692430Y-105094514D02*
X133692430Y-105618323D01*
X133740049Y-105713561D01*
X133835287Y-105761180D01*
X133978144Y-105761180D01*
X134073383Y-105713561D01*
X134121002Y-105665942D01*
X134740049Y-105761180D02*
X134644811Y-105713561D01*
X134597192Y-105618323D01*
X134597192Y-104761180D01*
X135501954Y-105713561D02*
X135406716Y-105761180D01*
X135216240Y-105761180D01*
X135121002Y-105713561D01*
X135073383Y-105618323D01*
X135073383Y-105237371D01*
X135121002Y-105142133D01*
X135216240Y-105094514D01*
X135406716Y-105094514D01*
X135501954Y-105142133D01*
X135549573Y-105237371D01*
X135549573Y-105332609D01*
X135073383Y-105427847D01*
%TO.C,BZ1*%
X92794247Y-55290571D02*
X92937104Y-55338190D01*
X92984723Y-55385809D01*
X93032342Y-55481047D01*
X93032342Y-55623904D01*
X92984723Y-55719142D01*
X92937104Y-55766761D01*
X92841866Y-55814380D01*
X92460914Y-55814380D01*
X92460914Y-54814380D01*
X92794247Y-54814380D01*
X92889485Y-54862000D01*
X92937104Y-54909619D01*
X92984723Y-55004857D01*
X92984723Y-55100095D01*
X92937104Y-55195333D01*
X92889485Y-55242952D01*
X92794247Y-55290571D01*
X92460914Y-55290571D01*
X93365676Y-54814380D02*
X94032342Y-54814380D01*
X93365676Y-55814380D01*
X94032342Y-55814380D01*
X94937104Y-55814380D02*
X94365676Y-55814380D01*
X94651390Y-55814380D02*
X94651390Y-54814380D01*
X94556152Y-54957238D01*
X94460914Y-55052476D01*
X94365676Y-55100095D01*
X91206628Y-66918952D02*
X91206628Y-66157047D01*
X91587580Y-66538000D02*
X90825676Y-66538000D01*
%TO.C,Q4*%
X112934761Y-69885619D02*
X112839523Y-69838000D01*
X112744285Y-69742761D01*
X112601428Y-69599904D01*
X112506190Y-69552285D01*
X112410952Y-69552285D01*
X112458571Y-69790380D02*
X112363333Y-69742761D01*
X112268095Y-69647523D01*
X112220476Y-69457047D01*
X112220476Y-69123714D01*
X112268095Y-68933238D01*
X112363333Y-68838000D01*
X112458571Y-68790380D01*
X112649047Y-68790380D01*
X112744285Y-68838000D01*
X112839523Y-68933238D01*
X112887142Y-69123714D01*
X112887142Y-69457047D01*
X112839523Y-69647523D01*
X112744285Y-69742761D01*
X112649047Y-69790380D01*
X112458571Y-69790380D01*
X113744285Y-69123714D02*
X113744285Y-69790380D01*
X113506190Y-68742761D02*
X113268095Y-69457047D01*
X113887142Y-69457047D01*
%TO.C,R5*%
X129685023Y-76449180D02*
X129351690Y-75972990D01*
X129113595Y-76449180D02*
X129113595Y-75449180D01*
X129494547Y-75449180D01*
X129589785Y-75496800D01*
X129637404Y-75544419D01*
X129685023Y-75639657D01*
X129685023Y-75782514D01*
X129637404Y-75877752D01*
X129589785Y-75925371D01*
X129494547Y-75972990D01*
X129113595Y-75972990D01*
X130589785Y-75449180D02*
X130113595Y-75449180D01*
X130065976Y-75925371D01*
X130113595Y-75877752D01*
X130208833Y-75830133D01*
X130446928Y-75830133D01*
X130542166Y-75877752D01*
X130589785Y-75925371D01*
X130637404Y-76020609D01*
X130637404Y-76258704D01*
X130589785Y-76353942D01*
X130542166Y-76401561D01*
X130446928Y-76449180D01*
X130208833Y-76449180D01*
X130113595Y-76401561D01*
X130065976Y-76353942D01*
%TO.C,R13*%
X169537142Y-86670380D02*
X169203809Y-86194190D01*
X168965714Y-86670380D02*
X168965714Y-85670380D01*
X169346666Y-85670380D01*
X169441904Y-85718000D01*
X169489523Y-85765619D01*
X169537142Y-85860857D01*
X169537142Y-86003714D01*
X169489523Y-86098952D01*
X169441904Y-86146571D01*
X169346666Y-86194190D01*
X168965714Y-86194190D01*
X170489523Y-86670380D02*
X169918095Y-86670380D01*
X170203809Y-86670380D02*
X170203809Y-85670380D01*
X170108571Y-85813238D01*
X170013333Y-85908476D01*
X169918095Y-85956095D01*
X170822857Y-85670380D02*
X171441904Y-85670380D01*
X171108571Y-86051333D01*
X171251428Y-86051333D01*
X171346666Y-86098952D01*
X171394285Y-86146571D01*
X171441904Y-86241809D01*
X171441904Y-86479904D01*
X171394285Y-86575142D01*
X171346666Y-86622761D01*
X171251428Y-86670380D01*
X170965714Y-86670380D01*
X170870476Y-86622761D01*
X170822857Y-86575142D01*
%TO.C,R14*%
X169537142Y-94290380D02*
X169203809Y-93814190D01*
X168965714Y-94290380D02*
X168965714Y-93290380D01*
X169346666Y-93290380D01*
X169441904Y-93338000D01*
X169489523Y-93385619D01*
X169537142Y-93480857D01*
X169537142Y-93623714D01*
X169489523Y-93718952D01*
X169441904Y-93766571D01*
X169346666Y-93814190D01*
X168965714Y-93814190D01*
X170489523Y-94290380D02*
X169918095Y-94290380D01*
X170203809Y-94290380D02*
X170203809Y-93290380D01*
X170108571Y-93433238D01*
X170013333Y-93528476D01*
X169918095Y-93576095D01*
X171346666Y-93623714D02*
X171346666Y-94290380D01*
X171108571Y-93242761D02*
X170870476Y-93957047D01*
X171489523Y-93957047D01*
%TO.C,R12*%
X130421142Y-51125380D02*
X130087809Y-50649190D01*
X129849714Y-51125380D02*
X129849714Y-50125380D01*
X130230666Y-50125380D01*
X130325904Y-50173000D01*
X130373523Y-50220619D01*
X130421142Y-50315857D01*
X130421142Y-50458714D01*
X130373523Y-50553952D01*
X130325904Y-50601571D01*
X130230666Y-50649190D01*
X129849714Y-50649190D01*
X131373523Y-51125380D02*
X130802095Y-51125380D01*
X131087809Y-51125380D02*
X131087809Y-50125380D01*
X130992571Y-50268238D01*
X130897333Y-50363476D01*
X130802095Y-50411095D01*
X131754476Y-50220619D02*
X131802095Y-50173000D01*
X131897333Y-50125380D01*
X132135428Y-50125380D01*
X132230666Y-50173000D01*
X132278285Y-50220619D01*
X132325904Y-50315857D01*
X132325904Y-50411095D01*
X132278285Y-50553952D01*
X131706857Y-51125380D01*
X132325904Y-51125380D01*
%TO.C,J9*%
X115236666Y-115530380D02*
X115236666Y-116244666D01*
X115189047Y-116387523D01*
X115093809Y-116482761D01*
X114950952Y-116530380D01*
X114855714Y-116530380D01*
X115760476Y-116530380D02*
X115950952Y-116530380D01*
X116046190Y-116482761D01*
X116093809Y-116435142D01*
X116189047Y-116292285D01*
X116236666Y-116101809D01*
X116236666Y-115720857D01*
X116189047Y-115625619D01*
X116141428Y-115578000D01*
X116046190Y-115530380D01*
X115855714Y-115530380D01*
X115760476Y-115578000D01*
X115712857Y-115625619D01*
X115665238Y-115720857D01*
X115665238Y-115958952D01*
X115712857Y-116054190D01*
X115760476Y-116101809D01*
X115855714Y-116149428D01*
X116046190Y-116149428D01*
X116141428Y-116101809D01*
X116189047Y-116054190D01*
X116236666Y-115958952D01*
X117632219Y-119271190D02*
X118108409Y-118937857D01*
X117632219Y-118699761D02*
X118632219Y-118699761D01*
X118632219Y-119080714D01*
X118584600Y-119175952D01*
X118536980Y-119223571D01*
X118441742Y-119271190D01*
X118298885Y-119271190D01*
X118203647Y-119223571D01*
X118156028Y-119175952D01*
X118108409Y-119080714D01*
X118108409Y-118699761D01*
X118156028Y-120033095D02*
X118156028Y-119699761D01*
X117632219Y-119699761D02*
X118632219Y-119699761D01*
X118632219Y-120175952D01*
X117632219Y-120556904D02*
X118632219Y-120556904D01*
X117917933Y-120890238D01*
X118632219Y-121223571D01*
X117632219Y-121223571D01*
X117632219Y-121747380D02*
X117632219Y-121937857D01*
X117679838Y-122033095D01*
X117727457Y-122080714D01*
X117870314Y-122175952D01*
X118060790Y-122223571D01*
X118441742Y-122223571D01*
X118536980Y-122175952D01*
X118584600Y-122128333D01*
X118632219Y-122033095D01*
X118632219Y-121842619D01*
X118584600Y-121747380D01*
X118536980Y-121699761D01*
X118441742Y-121652142D01*
X118203647Y-121652142D01*
X118108409Y-121699761D01*
X118060790Y-121747380D01*
X118013171Y-121842619D01*
X118013171Y-122033095D01*
X118060790Y-122128333D01*
X118108409Y-122175952D01*
X118203647Y-122223571D01*
X117632219Y-122556904D02*
X118298885Y-123080714D01*
X118298885Y-122556904D02*
X117632219Y-123080714D01*
X118584600Y-124747380D02*
X118632219Y-124652142D01*
X118632219Y-124509285D01*
X118584600Y-124366428D01*
X118489361Y-124271190D01*
X118394123Y-124223571D01*
X118203647Y-124175952D01*
X118060790Y-124175952D01*
X117870314Y-124223571D01*
X117775076Y-124271190D01*
X117679838Y-124366428D01*
X117632219Y-124509285D01*
X117632219Y-124604523D01*
X117679838Y-124747380D01*
X117727457Y-124795000D01*
X118060790Y-124795000D01*
X118060790Y-124604523D01*
X117632219Y-125747380D02*
X117632219Y-125175952D01*
X117632219Y-125461666D02*
X118632219Y-125461666D01*
X118489361Y-125366428D01*
X118394123Y-125271190D01*
X118346504Y-125175952D01*
X118013171Y-126175952D02*
X118013171Y-126937857D01*
X118584600Y-127937857D02*
X118632219Y-127842619D01*
X118632219Y-127699761D01*
X118584600Y-127556904D01*
X118489361Y-127461666D01*
X118394123Y-127414047D01*
X118203647Y-127366428D01*
X118060790Y-127366428D01*
X117870314Y-127414047D01*
X117775076Y-127461666D01*
X117679838Y-127556904D01*
X117632219Y-127699761D01*
X117632219Y-127795000D01*
X117679838Y-127937857D01*
X117727457Y-127985476D01*
X118060790Y-127985476D01*
X118060790Y-127795000D01*
X118632219Y-128890238D02*
X118632219Y-128414047D01*
X118156028Y-128366428D01*
X118203647Y-128414047D01*
X118251266Y-128509285D01*
X118251266Y-128747380D01*
X118203647Y-128842619D01*
X118156028Y-128890238D01*
X118060790Y-128937857D01*
X117822695Y-128937857D01*
X117727457Y-128890238D01*
X117679838Y-128842619D01*
X117632219Y-128747380D01*
X117632219Y-128509285D01*
X117679838Y-128414047D01*
X117727457Y-128366428D01*
%TO.C,R15*%
X129812023Y-94686380D02*
X129478690Y-94210190D01*
X129240595Y-94686380D02*
X129240595Y-93686380D01*
X129621547Y-93686380D01*
X129716785Y-93734000D01*
X129764404Y-93781619D01*
X129812023Y-93876857D01*
X129812023Y-94019714D01*
X129764404Y-94114952D01*
X129716785Y-94162571D01*
X129621547Y-94210190D01*
X129240595Y-94210190D01*
X130764404Y-94686380D02*
X130192976Y-94686380D01*
X130478690Y-94686380D02*
X130478690Y-93686380D01*
X130383452Y-93829238D01*
X130288214Y-93924476D01*
X130192976Y-93972095D01*
X131669166Y-93686380D02*
X131192976Y-93686380D01*
X131145357Y-94162571D01*
X131192976Y-94114952D01*
X131288214Y-94067333D01*
X131526309Y-94067333D01*
X131621547Y-94114952D01*
X131669166Y-94162571D01*
X131716785Y-94257809D01*
X131716785Y-94495904D01*
X131669166Y-94591142D01*
X131621547Y-94638761D01*
X131526309Y-94686380D01*
X131288214Y-94686380D01*
X131192976Y-94638761D01*
X131145357Y-94591142D01*
%TO.C,Q3*%
X106584761Y-85129619D02*
X106489523Y-85082000D01*
X106394285Y-84986761D01*
X106251428Y-84843904D01*
X106156190Y-84796285D01*
X106060952Y-84796285D01*
X106108571Y-85034380D02*
X106013333Y-84986761D01*
X105918095Y-84891523D01*
X105870476Y-84701047D01*
X105870476Y-84367714D01*
X105918095Y-84177238D01*
X106013333Y-84082000D01*
X106108571Y-84034380D01*
X106299047Y-84034380D01*
X106394285Y-84082000D01*
X106489523Y-84177238D01*
X106537142Y-84367714D01*
X106537142Y-84701047D01*
X106489523Y-84891523D01*
X106394285Y-84986761D01*
X106299047Y-85034380D01*
X106108571Y-85034380D01*
X106870476Y-84034380D02*
X107489523Y-84034380D01*
X107156190Y-84415333D01*
X107299047Y-84415333D01*
X107394285Y-84462952D01*
X107441904Y-84510571D01*
X107489523Y-84605809D01*
X107489523Y-84843904D01*
X107441904Y-84939142D01*
X107394285Y-84986761D01*
X107299047Y-85034380D01*
X107013333Y-85034380D01*
X106918095Y-84986761D01*
X106870476Y-84939142D01*
%TO.C,J2*%
X193416666Y-57364380D02*
X193416666Y-58078666D01*
X193369047Y-58221523D01*
X193273809Y-58316761D01*
X193130952Y-58364380D01*
X193035714Y-58364380D01*
X193845238Y-57459619D02*
X193892857Y-57412000D01*
X193988095Y-57364380D01*
X194226190Y-57364380D01*
X194321428Y-57412000D01*
X194369047Y-57459619D01*
X194416666Y-57554857D01*
X194416666Y-57650095D01*
X194369047Y-57792952D01*
X193797619Y-58364380D01*
X194416666Y-58364380D01*
%TO.C,R7*%
X99332023Y-84145380D02*
X98998690Y-83669190D01*
X98760595Y-84145380D02*
X98760595Y-83145380D01*
X99141547Y-83145380D01*
X99236785Y-83193000D01*
X99284404Y-83240619D01*
X99332023Y-83335857D01*
X99332023Y-83478714D01*
X99284404Y-83573952D01*
X99236785Y-83621571D01*
X99141547Y-83669190D01*
X98760595Y-83669190D01*
X99665357Y-83145380D02*
X100332023Y-83145380D01*
X99903452Y-84145380D01*
%TO.C,D1*%
X81615595Y-68524380D02*
X81615595Y-67524380D01*
X81853690Y-67524380D01*
X81996547Y-67572000D01*
X82091785Y-67667238D01*
X82139404Y-67762476D01*
X82187023Y-67952952D01*
X82187023Y-68095809D01*
X82139404Y-68286285D01*
X82091785Y-68381523D01*
X81996547Y-68476761D01*
X81853690Y-68524380D01*
X81615595Y-68524380D01*
X83139404Y-68524380D02*
X82567976Y-68524380D01*
X82853690Y-68524380D02*
X82853690Y-67524380D01*
X82758452Y-67667238D01*
X82663214Y-67762476D01*
X82567976Y-67810095D01*
X81948928Y-69524571D02*
X82091785Y-69572190D01*
X82139404Y-69619809D01*
X82187023Y-69715047D01*
X82187023Y-69857904D01*
X82139404Y-69953142D01*
X82091785Y-70000761D01*
X81996547Y-70048380D01*
X81615595Y-70048380D01*
X81615595Y-69048380D01*
X81948928Y-69048380D01*
X82044166Y-69096000D01*
X82091785Y-69143619D01*
X82139404Y-69238857D01*
X82139404Y-69334095D01*
X82091785Y-69429333D01*
X82044166Y-69476952D01*
X81948928Y-69524571D01*
X81615595Y-69524571D01*
X82996547Y-70000761D02*
X82901309Y-70048380D01*
X82710833Y-70048380D01*
X82615595Y-70000761D01*
X82567976Y-69905523D01*
X82567976Y-69524571D01*
X82615595Y-69429333D01*
X82710833Y-69381714D01*
X82901309Y-69381714D01*
X82996547Y-69429333D01*
X83044166Y-69524571D01*
X83044166Y-69619809D01*
X82567976Y-69715047D01*
X83853690Y-70000761D02*
X83758452Y-70048380D01*
X83567976Y-70048380D01*
X83472738Y-70000761D01*
X83425119Y-69905523D01*
X83425119Y-69524571D01*
X83472738Y-69429333D01*
X83567976Y-69381714D01*
X83758452Y-69381714D01*
X83853690Y-69429333D01*
X83901309Y-69524571D01*
X83901309Y-69619809D01*
X83425119Y-69715047D01*
X84329880Y-69381714D02*
X84329880Y-70381714D01*
X84329880Y-69429333D02*
X84425119Y-69381714D01*
X84615595Y-69381714D01*
X84710833Y-69429333D01*
X84758452Y-69476952D01*
X84806071Y-69572190D01*
X84806071Y-69857904D01*
X84758452Y-69953142D01*
X84710833Y-70000761D01*
X84615595Y-70048380D01*
X84425119Y-70048380D01*
X84329880Y-70000761D01*
%TO.C,R2*%
X129812023Y-88691980D02*
X129478690Y-88215790D01*
X129240595Y-88691980D02*
X129240595Y-87691980D01*
X129621547Y-87691980D01*
X129716785Y-87739600D01*
X129764404Y-87787219D01*
X129812023Y-87882457D01*
X129812023Y-88025314D01*
X129764404Y-88120552D01*
X129716785Y-88168171D01*
X129621547Y-88215790D01*
X129240595Y-88215790D01*
X130192976Y-87787219D02*
X130240595Y-87739600D01*
X130335833Y-87691980D01*
X130573928Y-87691980D01*
X130669166Y-87739600D01*
X130716785Y-87787219D01*
X130764404Y-87882457D01*
X130764404Y-87977695D01*
X130716785Y-88120552D01*
X130145357Y-88691980D01*
X130764404Y-88691980D01*
%TO.C,R8*%
X129812023Y-85542380D02*
X129478690Y-85066190D01*
X129240595Y-85542380D02*
X129240595Y-84542380D01*
X129621547Y-84542380D01*
X129716785Y-84590000D01*
X129764404Y-84637619D01*
X129812023Y-84732857D01*
X129812023Y-84875714D01*
X129764404Y-84970952D01*
X129716785Y-85018571D01*
X129621547Y-85066190D01*
X129240595Y-85066190D01*
X130383452Y-84970952D02*
X130288214Y-84923333D01*
X130240595Y-84875714D01*
X130192976Y-84780476D01*
X130192976Y-84732857D01*
X130240595Y-84637619D01*
X130288214Y-84590000D01*
X130383452Y-84542380D01*
X130573928Y-84542380D01*
X130669166Y-84590000D01*
X130716785Y-84637619D01*
X130764404Y-84732857D01*
X130764404Y-84780476D01*
X130716785Y-84875714D01*
X130669166Y-84923333D01*
X130573928Y-84970952D01*
X130383452Y-84970952D01*
X130288214Y-85018571D01*
X130240595Y-85066190D01*
X130192976Y-85161428D01*
X130192976Y-85351904D01*
X130240595Y-85447142D01*
X130288214Y-85494761D01*
X130383452Y-85542380D01*
X130573928Y-85542380D01*
X130669166Y-85494761D01*
X130716785Y-85447142D01*
X130764404Y-85351904D01*
X130764404Y-85161428D01*
X130716785Y-85066190D01*
X130669166Y-85018571D01*
X130573928Y-84970952D01*
%TO.C,R6*%
X99332023Y-77973180D02*
X98998690Y-77496990D01*
X98760595Y-77973180D02*
X98760595Y-76973180D01*
X99141547Y-76973180D01*
X99236785Y-77020800D01*
X99284404Y-77068419D01*
X99332023Y-77163657D01*
X99332023Y-77306514D01*
X99284404Y-77401752D01*
X99236785Y-77449371D01*
X99141547Y-77496990D01*
X98760595Y-77496990D01*
X100189166Y-76973180D02*
X99998690Y-76973180D01*
X99903452Y-77020800D01*
X99855833Y-77068419D01*
X99760595Y-77211276D01*
X99712976Y-77401752D01*
X99712976Y-77782704D01*
X99760595Y-77877942D01*
X99808214Y-77925561D01*
X99903452Y-77973180D01*
X100093928Y-77973180D01*
X100189166Y-77925561D01*
X100236785Y-77877942D01*
X100284404Y-77782704D01*
X100284404Y-77544609D01*
X100236785Y-77449371D01*
X100189166Y-77401752D01*
X100093928Y-77354133D01*
X99903452Y-77354133D01*
X99808214Y-77401752D01*
X99760595Y-77449371D01*
X99712976Y-77544609D01*
%TO.C,D2*%
X81615595Y-75128380D02*
X81615595Y-74128380D01*
X81853690Y-74128380D01*
X81996547Y-74176000D01*
X82091785Y-74271238D01*
X82139404Y-74366476D01*
X82187023Y-74556952D01*
X82187023Y-74699809D01*
X82139404Y-74890285D01*
X82091785Y-74985523D01*
X81996547Y-75080761D01*
X81853690Y-75128380D01*
X81615595Y-75128380D01*
X82567976Y-74223619D02*
X82615595Y-74176000D01*
X82710833Y-74128380D01*
X82948928Y-74128380D01*
X83044166Y-74176000D01*
X83091785Y-74223619D01*
X83139404Y-74318857D01*
X83139404Y-74414095D01*
X83091785Y-74556952D01*
X82520357Y-75128380D01*
X83139404Y-75128380D01*
X81948928Y-76128571D02*
X82091785Y-76176190D01*
X82139404Y-76223809D01*
X82187023Y-76319047D01*
X82187023Y-76461904D01*
X82139404Y-76557142D01*
X82091785Y-76604761D01*
X81996547Y-76652380D01*
X81615595Y-76652380D01*
X81615595Y-75652380D01*
X81948928Y-75652380D01*
X82044166Y-75700000D01*
X82091785Y-75747619D01*
X82139404Y-75842857D01*
X82139404Y-75938095D01*
X82091785Y-76033333D01*
X82044166Y-76080952D01*
X81948928Y-76128571D01*
X81615595Y-76128571D01*
X83044166Y-76652380D02*
X83044166Y-76128571D01*
X82996547Y-76033333D01*
X82901309Y-75985714D01*
X82710833Y-75985714D01*
X82615595Y-76033333D01*
X83044166Y-76604761D02*
X82948928Y-76652380D01*
X82710833Y-76652380D01*
X82615595Y-76604761D01*
X82567976Y-76509523D01*
X82567976Y-76414285D01*
X82615595Y-76319047D01*
X82710833Y-76271428D01*
X82948928Y-76271428D01*
X83044166Y-76223809D01*
X83377500Y-75985714D02*
X83758452Y-75985714D01*
X83520357Y-75652380D02*
X83520357Y-76509523D01*
X83567976Y-76604761D01*
X83663214Y-76652380D01*
X83758452Y-76652380D01*
X83948928Y-75985714D02*
X84329880Y-75985714D01*
X84091785Y-75652380D02*
X84091785Y-76509523D01*
X84139404Y-76604761D01*
X84234642Y-76652380D01*
X84329880Y-76652380D01*
X85044166Y-76604761D02*
X84948928Y-76652380D01*
X84758452Y-76652380D01*
X84663214Y-76604761D01*
X84615595Y-76509523D01*
X84615595Y-76128571D01*
X84663214Y-76033333D01*
X84758452Y-75985714D01*
X84948928Y-75985714D01*
X85044166Y-76033333D01*
X85091785Y-76128571D01*
X85091785Y-76223809D01*
X84615595Y-76319047D01*
X85520357Y-76652380D02*
X85520357Y-75985714D01*
X85520357Y-76176190D02*
X85567976Y-76080952D01*
X85615595Y-76033333D01*
X85710833Y-75985714D01*
X85806071Y-75985714D01*
X86044166Y-75985714D02*
X86282261Y-76652380D01*
X86520357Y-75985714D02*
X86282261Y-76652380D01*
X86187023Y-76890476D01*
X86139404Y-76938095D01*
X86044166Y-76985714D01*
%TO.C,D5*%
X109370904Y-56967380D02*
X109370904Y-55967380D01*
X109609000Y-55967380D01*
X109751857Y-56015000D01*
X109847095Y-56110238D01*
X109894714Y-56205476D01*
X109942333Y-56395952D01*
X109942333Y-56538809D01*
X109894714Y-56729285D01*
X109847095Y-56824523D01*
X109751857Y-56919761D01*
X109609000Y-56967380D01*
X109370904Y-56967380D01*
X110847095Y-55967380D02*
X110370904Y-55967380D01*
X110323285Y-56443571D01*
X110370904Y-56395952D01*
X110466142Y-56348333D01*
X110704238Y-56348333D01*
X110799476Y-56395952D01*
X110847095Y-56443571D01*
X110894714Y-56538809D01*
X110894714Y-56776904D01*
X110847095Y-56872142D01*
X110799476Y-56919761D01*
X110704238Y-56967380D01*
X110466142Y-56967380D01*
X110370904Y-56919761D01*
X110323285Y-56872142D01*
X97655095Y-56967380D02*
X97655095Y-55967380D01*
X98226523Y-56967380D02*
X97797952Y-56395952D01*
X98226523Y-55967380D02*
X97655095Y-56538809D01*
%TO.C,J13*%
X163210476Y-57469380D02*
X163210476Y-58183666D01*
X163162857Y-58326523D01*
X163067619Y-58421761D01*
X162924761Y-58469380D01*
X162829523Y-58469380D01*
X164210476Y-58469380D02*
X163639047Y-58469380D01*
X163924761Y-58469380D02*
X163924761Y-57469380D01*
X163829523Y-57612238D01*
X163734285Y-57707476D01*
X163639047Y-57755095D01*
X164543809Y-57469380D02*
X165162857Y-57469380D01*
X164829523Y-57850333D01*
X164972380Y-57850333D01*
X165067619Y-57897952D01*
X165115238Y-57945571D01*
X165162857Y-58040809D01*
X165162857Y-58278904D01*
X165115238Y-58374142D01*
X165067619Y-58421761D01*
X164972380Y-58469380D01*
X164686666Y-58469380D01*
X164591428Y-58421761D01*
X164543809Y-58374142D01*
%TO.C,R4*%
X99332023Y-80970380D02*
X98998690Y-80494190D01*
X98760595Y-80970380D02*
X98760595Y-79970380D01*
X99141547Y-79970380D01*
X99236785Y-80018000D01*
X99284404Y-80065619D01*
X99332023Y-80160857D01*
X99332023Y-80303714D01*
X99284404Y-80398952D01*
X99236785Y-80446571D01*
X99141547Y-80494190D01*
X98760595Y-80494190D01*
X100189166Y-80303714D02*
X100189166Y-80970380D01*
X99951071Y-79922761D02*
X99712976Y-80637047D01*
X100332023Y-80637047D01*
%TO.C,Q5*%
X106584761Y-69885619D02*
X106489523Y-69838000D01*
X106394285Y-69742761D01*
X106251428Y-69599904D01*
X106156190Y-69552285D01*
X106060952Y-69552285D01*
X106108571Y-69790380D02*
X106013333Y-69742761D01*
X105918095Y-69647523D01*
X105870476Y-69457047D01*
X105870476Y-69123714D01*
X105918095Y-68933238D01*
X106013333Y-68838000D01*
X106108571Y-68790380D01*
X106299047Y-68790380D01*
X106394285Y-68838000D01*
X106489523Y-68933238D01*
X106537142Y-69123714D01*
X106537142Y-69457047D01*
X106489523Y-69647523D01*
X106394285Y-69742761D01*
X106299047Y-69790380D01*
X106108571Y-69790380D01*
X107441904Y-68790380D02*
X106965714Y-68790380D01*
X106918095Y-69266571D01*
X106965714Y-69218952D01*
X107060952Y-69171333D01*
X107299047Y-69171333D01*
X107394285Y-69218952D01*
X107441904Y-69266571D01*
X107489523Y-69361809D01*
X107489523Y-69599904D01*
X107441904Y-69695142D01*
X107394285Y-69742761D01*
X107299047Y-69790380D01*
X107060952Y-69790380D01*
X106965714Y-69742761D01*
X106918095Y-69695142D01*
%TO.C,R11*%
X99332023Y-87269580D02*
X98998690Y-86793390D01*
X98760595Y-87269580D02*
X98760595Y-86269580D01*
X99141547Y-86269580D01*
X99236785Y-86317200D01*
X99284404Y-86364819D01*
X99332023Y-86460057D01*
X99332023Y-86602914D01*
X99284404Y-86698152D01*
X99236785Y-86745771D01*
X99141547Y-86793390D01*
X98760595Y-86793390D01*
X100284404Y-87269580D02*
X99712976Y-87269580D01*
X99998690Y-87269580D02*
X99998690Y-86269580D01*
X99903452Y-86412438D01*
X99808214Y-86507676D01*
X99712976Y-86555295D01*
X101236785Y-87269580D02*
X100665357Y-87269580D01*
X100951071Y-87269580D02*
X100951071Y-86269580D01*
X100855833Y-86412438D01*
X100760595Y-86507676D01*
X100665357Y-86555295D01*
D14*
%TO.C,J10*%
X160080000Y-130978000D02*
X167580000Y-130978000D01*
X167580000Y-130978000D02*
X167580000Y-125478000D01*
X167580000Y-125478000D02*
X160080000Y-125478000D01*
X160080000Y-125478000D02*
X160080000Y-130978000D01*
X152494000Y-119878000D02*
X149834000Y-119878000D01*
X149834000Y-122478000D02*
X149834000Y-121148000D01*
D12*
X159766000Y-130756000D02*
X149130000Y-130756000D01*
X177630000Y-130756000D02*
X167894000Y-130756000D01*
D14*
X154310000Y-86133000D02*
X153930000Y-86133000D01*
D12*
X172974000Y-79756000D02*
X177630000Y-79756000D01*
X149130000Y-79756000D02*
X153924000Y-79756000D01*
D14*
X176944000Y-84278000D02*
X176944000Y-122578000D01*
X172550000Y-79713000D02*
X172550000Y-86133000D01*
X174284000Y-84278000D02*
X176944000Y-84278000D01*
X149834000Y-119878000D02*
X149834000Y-84258000D01*
X151164000Y-122478000D02*
X149834000Y-122478000D01*
X152494000Y-84258000D02*
X149834000Y-84258000D01*
X154310000Y-79713000D02*
X172550000Y-79713000D01*
X152494000Y-119878000D02*
X152494000Y-84258000D01*
X174284000Y-122578000D02*
X176944000Y-122578000D01*
X154310000Y-79713000D02*
X154310000Y-86133000D01*
D12*
X177630000Y-79756000D02*
X177630000Y-130756000D01*
X149130000Y-130756000D02*
X149130000Y-79756000D01*
D14*
X174284000Y-84278000D02*
X174284000Y-122578000D01*
%TO.C,J3*%
X92416800Y-70399600D02*
X97556800Y-70399600D01*
X92416800Y-73059600D02*
X97556800Y-73059600D01*
X97556800Y-73059600D02*
X97556800Y-70399600D01*
X89816800Y-73059600D02*
X89816800Y-71729600D01*
X92416800Y-73059600D02*
X92416800Y-70399600D01*
X91146800Y-73059600D02*
X89816800Y-73059600D01*
%TO.C,J6*%
X201421000Y-104008000D02*
G75*
G03*
X201421000Y-104008000I-1251000J0D01*
G01*
%TO.C,D4*%
X79523000Y-59416000D02*
X76433000Y-59416000D01*
X77977538Y-64966000D02*
G75*
G03*
X79522830Y-59416000I462J2990000D01*
G01*
X76433170Y-59416000D02*
G75*
G03*
X77978462Y-64966000I1544830J-2560000D01*
G01*
X80478000Y-61976000D02*
G75*
G03*
X80478000Y-61976000I-2500000J0D01*
G01*
%TO.C,J5*%
X218421000Y-64008000D02*
G75*
G03*
X218421000Y-64008000I-1251000J0D01*
G01*
%TO.C,J4*%
X218421000Y-104008000D02*
G75*
G03*
X218421000Y-104008000I-1251000J0D01*
G01*
%TO.C,D3*%
X80478000Y-81788000D02*
G75*
G03*
X80478000Y-81788000I-2500000J0D01*
G01*
X77977538Y-84778000D02*
G75*
G03*
X79522830Y-79228000I462J2990000D01*
G01*
X76433170Y-79228000D02*
G75*
G03*
X77978462Y-84778000I1544830J-2560000D01*
G01*
X79523000Y-79228000D02*
X76433000Y-79228000D01*
%TO.C,R16*%
X127069600Y-80722800D02*
X127069600Y-81052800D01*
X120529600Y-83462800D02*
X127069600Y-83462800D01*
X120529600Y-80722800D02*
X127069600Y-80722800D01*
X120529600Y-83132800D02*
X120529600Y-83462800D01*
X127069600Y-83462800D02*
X127069600Y-83132800D01*
X120529600Y-81052800D02*
X120529600Y-80722800D01*
%TO.C,J12*%
X92687000Y-127439000D02*
X92687000Y-130099000D01*
X105507000Y-128769000D02*
X105507000Y-130099000D01*
X105507000Y-130099000D02*
X104177000Y-130099000D01*
X102907000Y-127439000D02*
X92687000Y-127439000D01*
X102907000Y-127439000D02*
X102907000Y-130099000D01*
X102907000Y-130099000D02*
X92687000Y-130099000D01*
%TO.C,Q1*%
X114868478Y-89976478D02*
G75*
G03*
X113030000Y-85538000I-1838478J1838478D01*
G01*
X113030000Y-85537999D02*
G75*
G03*
X111191522Y-89976478I0J-2600001D01*
G01*
X111230000Y-89988000D02*
X114830000Y-89988000D01*
%TO.C,R1*%
X127069600Y-90196800D02*
X127069600Y-89866800D01*
X120529600Y-89866800D02*
X120529600Y-90196800D01*
X127069600Y-89866800D02*
X120529600Y-89866800D01*
X127069600Y-92606800D02*
X120529600Y-92606800D01*
X127069600Y-92276800D02*
X127069600Y-92606800D01*
X120529600Y-92606800D02*
X120529600Y-92276800D01*
%TO.C,R9*%
X132742000Y-53118000D02*
X132742000Y-59658000D01*
X132742000Y-59658000D02*
X133072000Y-59658000D01*
X133072000Y-53118000D02*
X132742000Y-53118000D01*
X135152000Y-53118000D02*
X135482000Y-53118000D01*
X135482000Y-59658000D02*
X135152000Y-59658000D01*
X135482000Y-53118000D02*
X135482000Y-59658000D01*
%TO.C,C2*%
X144487000Y-79024000D02*
X144172000Y-79024000D01*
X146912000Y-79024000D02*
X146597000Y-79024000D01*
X144487000Y-83964000D02*
X144172000Y-83964000D01*
X146912000Y-83964000D02*
X146597000Y-83964000D01*
X144172000Y-79024000D02*
X144172000Y-83964000D01*
X146912000Y-79024000D02*
X146912000Y-83964000D01*
%TO.C,J1*%
X201930000Y-55318000D02*
X205890000Y-55318000D01*
X201930000Y-56318000D02*
X201930000Y-55318000D01*
X199620000Y-49308000D02*
X199620000Y-53308000D01*
X205890000Y-53648000D02*
X205890000Y-55318000D01*
X201930000Y-55318000D02*
X201930000Y-53648000D01*
X199910000Y-55313000D02*
X199910000Y-46088000D01*
X206005000Y-56318000D02*
X201815000Y-56318000D01*
X205090000Y-46688000D02*
X206690000Y-46688000D01*
X206005000Y-55313000D02*
X206005000Y-56318000D01*
X201130000Y-46088000D02*
X201130000Y-46688000D01*
X206690000Y-46688000D02*
X206690000Y-46088000D01*
X201815000Y-55313000D02*
X199910000Y-55313000D01*
X201130000Y-46688000D02*
X202730000Y-46688000D01*
X201930000Y-53648000D02*
X205890000Y-53648000D01*
X199910000Y-46088000D02*
X207910000Y-46088000D01*
X207910000Y-46088000D02*
X207910000Y-55313000D01*
X202730000Y-46688000D02*
X202730000Y-46088000D01*
X207910000Y-55313000D02*
X206005000Y-55313000D01*
X201815000Y-56318000D02*
X201815000Y-55313000D01*
X205890000Y-55318000D02*
X205890000Y-56318000D01*
X205090000Y-46088000D02*
X205090000Y-46688000D01*
%TO.C,J14*%
X116116000Y-47100000D02*
X116116000Y-46500000D01*
X87376000Y-51520000D02*
X87626000Y-50990000D01*
X89116000Y-46500000D02*
X89116000Y-47100000D01*
X106896000Y-46500000D02*
X106896000Y-47100000D01*
X94196000Y-46500000D02*
X94196000Y-47100000D01*
X105956000Y-47100000D02*
X105956000Y-46500000D01*
X91656000Y-47100000D02*
X93256000Y-47100000D01*
X108496000Y-47100000D02*
X108496000Y-46500000D01*
X116696000Y-52520000D02*
X116696000Y-46500000D01*
X104356000Y-46500000D02*
X104356000Y-47100000D01*
X101816000Y-47100000D02*
X103416000Y-47100000D01*
X103416000Y-47100000D02*
X103416000Y-46500000D01*
X92456000Y-51520000D02*
X92456000Y-52520000D01*
X85996000Y-52520000D02*
X116696000Y-52520000D01*
X115066000Y-50990000D02*
X110236000Y-50990000D01*
X91656000Y-46500000D02*
X91656000Y-47100000D01*
X104356000Y-47100000D02*
X105956000Y-47100000D01*
X99276000Y-47100000D02*
X100876000Y-47100000D01*
X115316000Y-52520000D02*
X115316000Y-51520000D01*
X85996000Y-46500000D02*
X85996000Y-52520000D01*
X86576000Y-47100000D02*
X88176000Y-47100000D01*
X114516000Y-46500000D02*
X114516000Y-47100000D01*
X90716000Y-47100000D02*
X90716000Y-46500000D01*
X85706000Y-47530000D02*
X85706000Y-51530000D01*
X110236000Y-51520000D02*
X110236000Y-52520000D01*
X115316000Y-51520000D02*
X110236000Y-51520000D01*
X100876000Y-47100000D02*
X100876000Y-46500000D01*
X114516000Y-47100000D02*
X116116000Y-47100000D01*
X87376000Y-52520000D02*
X87376000Y-51520000D01*
X99276000Y-46500000D02*
X99276000Y-47100000D01*
X92456000Y-50990000D02*
X92456000Y-51520000D01*
X94196000Y-47100000D02*
X95796000Y-47100000D01*
X113576000Y-47100000D02*
X113576000Y-46500000D01*
X98336000Y-47100000D02*
X98336000Y-46500000D01*
X110236000Y-50990000D02*
X110236000Y-51520000D01*
X109436000Y-46500000D02*
X109436000Y-47100000D01*
X109436000Y-47100000D02*
X111036000Y-47100000D01*
X111036000Y-47100000D02*
X111036000Y-46500000D01*
X87626000Y-52520000D02*
X87626000Y-51520000D01*
X86576000Y-46500000D02*
X86576000Y-47100000D01*
X87626000Y-50990000D02*
X92456000Y-50990000D01*
X93256000Y-47100000D02*
X93256000Y-46500000D01*
X95796000Y-47100000D02*
X95796000Y-46500000D01*
X88176000Y-47100000D02*
X88176000Y-46500000D01*
X96736000Y-47100000D02*
X98336000Y-47100000D01*
X87376000Y-51520000D02*
X92456000Y-51520000D01*
X111976000Y-47100000D02*
X113576000Y-47100000D01*
X101816000Y-46500000D02*
X101816000Y-47100000D01*
X115316000Y-51520000D02*
X115066000Y-50990000D01*
X89116000Y-47100000D02*
X90716000Y-47100000D01*
X96736000Y-46500000D02*
X96736000Y-47100000D01*
X116696000Y-46500000D02*
X85996000Y-46500000D01*
X111976000Y-46500000D02*
X111976000Y-47100000D01*
X115066000Y-52520000D02*
X115066000Y-51520000D01*
X106896000Y-47100000D02*
X108496000Y-47100000D01*
%TO.C,R10*%
X136120000Y-59658000D02*
X135790000Y-59658000D01*
X138530000Y-53118000D02*
X138200000Y-53118000D01*
X135790000Y-59658000D02*
X135790000Y-53118000D01*
X135790000Y-53118000D02*
X136120000Y-53118000D01*
X138530000Y-59658000D02*
X138530000Y-53118000D01*
X138200000Y-59658000D02*
X138530000Y-59658000D01*
%TO.C,R3*%
X127069600Y-80414800D02*
X120529600Y-80414800D01*
X127069600Y-78004800D02*
X127069600Y-77674800D01*
X127069600Y-80084800D02*
X127069600Y-80414800D01*
X120529600Y-80414800D02*
X120529600Y-80084800D01*
X120529600Y-77674800D02*
X120529600Y-78004800D01*
X127069600Y-77674800D02*
X120529600Y-77674800D01*
%TO.C,Q7*%
X106680000Y-93157999D02*
G75*
G03*
X104841522Y-97596478I0J-2600001D01*
G01*
X108518478Y-97596478D02*
G75*
G03*
X106680000Y-93158000I-1838478J1838478D01*
G01*
X104880000Y-97608000D02*
X108480000Y-97608000D01*
%TO.C,C1*%
X127162621Y-68961000D02*
G75*
G03*
X127162621Y-68961000I-3270000J0D01*
G01*
X125573621Y-70001000D02*
X125573621Y-71727000D01*
X125133621Y-65975000D02*
X125133621Y-67921000D01*
X124492621Y-70001000D02*
X124492621Y-72136000D01*
X125093621Y-65959000D02*
X125093621Y-67921000D01*
X125413621Y-66105000D02*
X125413621Y-67921000D01*
X124773621Y-70001000D02*
X124773621Y-72071000D01*
X124973621Y-70001000D02*
X124973621Y-72008000D01*
X125333621Y-70001000D02*
X125333621Y-71857000D01*
X125453621Y-66127000D02*
X125453621Y-67921000D01*
X124572621Y-70001000D02*
X124572621Y-72120000D01*
X126133621Y-70001000D02*
X126133621Y-71304000D01*
X125533621Y-66171000D02*
X125533621Y-67921000D01*
X124893621Y-70001000D02*
X124893621Y-72035000D01*
X127053621Y-68159000D02*
X127053621Y-69763000D01*
X124933621Y-65900000D02*
X124933621Y-67921000D01*
X126733621Y-67380000D02*
X126733621Y-70542000D01*
X125173621Y-65991000D02*
X125173621Y-67921000D01*
X126413621Y-66917000D02*
X126413621Y-71005000D01*
X124492621Y-65786000D02*
X124492621Y-67921000D01*
X124332621Y-70001000D02*
X124332621Y-72162000D01*
X125373621Y-66085000D02*
X125373621Y-67921000D01*
X124653621Y-70001000D02*
X124653621Y-72102000D01*
X126293621Y-66779000D02*
X126293621Y-71143000D01*
X124532621Y-65794000D02*
X124532621Y-67921000D01*
X125333621Y-66065000D02*
X125333621Y-67921000D01*
X125693621Y-70001000D02*
X125693621Y-71651000D01*
X124572621Y-65802000D02*
X124572621Y-67921000D01*
X127133621Y-68559000D02*
X127133621Y-69363000D01*
X126573621Y-67127000D02*
X126573621Y-70795000D01*
X124933621Y-70001000D02*
X124933621Y-72022000D01*
X124733621Y-65840000D02*
X124733621Y-67921000D01*
X125893621Y-66413000D02*
X125893621Y-67921000D01*
X124332621Y-65760000D02*
X124332621Y-67921000D01*
X124372621Y-70001000D02*
X124372621Y-72156000D01*
X126613621Y-67185000D02*
X126613621Y-70737000D01*
X126493621Y-67017000D02*
X126493621Y-70905000D01*
X127093621Y-68328000D02*
X127093621Y-69594000D01*
X124613621Y-70001000D02*
X124613621Y-72111000D01*
X125053621Y-65943000D02*
X125053621Y-67921000D01*
X125413621Y-70001000D02*
X125413621Y-71817000D01*
X124212621Y-70001000D02*
X124212621Y-72176000D01*
X125293621Y-70001000D02*
X125293621Y-71877000D01*
X120392380Y-67122000D02*
X121022380Y-67122000D01*
X125773621Y-70001000D02*
X125773621Y-71597000D01*
X126173621Y-70001000D02*
X126173621Y-71266000D01*
X126653621Y-67247000D02*
X126653621Y-70675000D01*
X125493621Y-70001000D02*
X125493621Y-71773000D01*
X124653621Y-65820000D02*
X124653621Y-67921000D01*
X125933621Y-70001000D02*
X125933621Y-71477000D01*
X124773621Y-65851000D02*
X124773621Y-67921000D01*
X124252621Y-70001000D02*
X124252621Y-72172000D01*
X124412621Y-65772000D02*
X124412621Y-67921000D01*
X124292621Y-70001000D02*
X124292621Y-72167000D01*
X126253621Y-66737000D02*
X126253621Y-71185000D01*
X123972621Y-65731000D02*
X123972621Y-72191000D01*
X125133621Y-70001000D02*
X125133621Y-71947000D01*
X125893621Y-70001000D02*
X125893621Y-71509000D01*
X125533621Y-70001000D02*
X125533621Y-71751000D01*
X127013621Y-68021000D02*
X127013621Y-69901000D01*
X124372621Y-65766000D02*
X124372621Y-67921000D01*
X125933621Y-66445000D02*
X125933621Y-67921000D01*
X124613621Y-65811000D02*
X124613621Y-67921000D01*
X124532621Y-70001000D02*
X124532621Y-72128000D01*
X124412621Y-70001000D02*
X124412621Y-72150000D01*
X126893621Y-67699000D02*
X126893621Y-70223000D01*
X125373621Y-70001000D02*
X125373621Y-71837000D01*
X124132621Y-65739000D02*
X124132621Y-67921000D01*
X125973621Y-70001000D02*
X125973621Y-71445000D01*
X126133621Y-66618000D02*
X126133621Y-67921000D01*
X124693621Y-65830000D02*
X124693621Y-67921000D01*
X126013621Y-66511000D02*
X126013621Y-67921000D01*
X124172621Y-65743000D02*
X124172621Y-67921000D01*
X124132621Y-70001000D02*
X124132621Y-72183000D01*
X125013621Y-70001000D02*
X125013621Y-71994000D01*
X125493621Y-66149000D02*
X125493621Y-67921000D01*
X125733621Y-70001000D02*
X125733621Y-71625000D01*
X126813621Y-67529000D02*
X126813621Y-70393000D01*
X126973621Y-67902000D02*
X126973621Y-70020000D01*
X125053621Y-70001000D02*
X125053621Y-71979000D01*
X125613621Y-70001000D02*
X125613621Y-71703000D01*
X126853621Y-67611000D02*
X126853621Y-70311000D01*
X125013621Y-65928000D02*
X125013621Y-67921000D01*
X126053621Y-66545000D02*
X126053621Y-67921000D01*
X124853621Y-65875000D02*
X124853621Y-67921000D01*
X124052621Y-65734000D02*
X124052621Y-72188000D01*
X124012621Y-65733000D02*
X124012621Y-72189000D01*
X126213621Y-66696000D02*
X126213621Y-71226000D01*
X124893621Y-65887000D02*
X124893621Y-67921000D01*
X124973621Y-65914000D02*
X124973621Y-67921000D01*
X124452621Y-70001000D02*
X124452621Y-72143000D01*
X124252621Y-65750000D02*
X124252621Y-67921000D01*
X125293621Y-66045000D02*
X125293621Y-67921000D01*
X125093621Y-70001000D02*
X125093621Y-71963000D01*
X126333621Y-66824000D02*
X126333621Y-71098000D01*
X123932621Y-65731000D02*
X123932621Y-72191000D01*
X120707380Y-66807000D02*
X120707380Y-67437000D01*
X125253621Y-66027000D02*
X125253621Y-67921000D01*
X126773621Y-67452000D02*
X126773621Y-70470000D01*
X126093621Y-70001000D02*
X126093621Y-71341000D01*
X124853621Y-70001000D02*
X124853621Y-72047000D01*
X125813621Y-70001000D02*
X125813621Y-71568000D01*
X126933621Y-67796000D02*
X126933621Y-70126000D01*
X125573621Y-66195000D02*
X125573621Y-67921000D01*
X126013621Y-70001000D02*
X126013621Y-71411000D01*
X124292621Y-65755000D02*
X124292621Y-67921000D01*
X125653621Y-70001000D02*
X125653621Y-71677000D01*
X124212621Y-65746000D02*
X124212621Y-67921000D01*
X126533621Y-67071000D02*
X126533621Y-70851000D01*
X126373621Y-66869000D02*
X126373621Y-71053000D01*
X126453621Y-66966000D02*
X126453621Y-70956000D01*
X126053621Y-70001000D02*
X126053621Y-71377000D01*
X125813621Y-66354000D02*
X125813621Y-67921000D01*
X125693621Y-66271000D02*
X125693621Y-67921000D01*
X126173621Y-66656000D02*
X126173621Y-67921000D01*
X125773621Y-66325000D02*
X125773621Y-67921000D01*
X125853621Y-66383000D02*
X125853621Y-67921000D01*
X124813621Y-70001000D02*
X124813621Y-72059000D01*
X123892621Y-65731000D02*
X123892621Y-72191000D01*
X125253621Y-70001000D02*
X125253621Y-71895000D01*
X125613621Y-66219000D02*
X125613621Y-67921000D01*
X125853621Y-70001000D02*
X125853621Y-71539000D01*
X125733621Y-66297000D02*
X125733621Y-67921000D01*
X124693621Y-70001000D02*
X124693621Y-72092000D01*
X126093621Y-66581000D02*
X126093621Y-67921000D01*
X125973621Y-66477000D02*
X125973621Y-67921000D01*
X124813621Y-65863000D02*
X124813621Y-67921000D01*
X125653621Y-66245000D02*
X125653621Y-67921000D01*
X125173621Y-70001000D02*
X125173621Y-71931000D01*
X126693621Y-67311000D02*
X126693621Y-70611000D01*
X125453621Y-70001000D02*
X125453621Y-71795000D01*
X124452621Y-65779000D02*
X124452621Y-67921000D01*
X124092621Y-65737000D02*
X124092621Y-72185000D01*
X125213621Y-70001000D02*
X125213621Y-71913000D01*
X124172621Y-70001000D02*
X124172621Y-72179000D01*
X124733621Y-70001000D02*
X124733621Y-72082000D01*
X125213621Y-66009000D02*
X125213621Y-67921000D01*
%TO.C,J7*%
X201421000Y-64008000D02*
G75*
G03*
X201421000Y-64008000I-1251000J0D01*
G01*
%TO.C,D7*%
X79523000Y-85827000D02*
X76433000Y-85827000D01*
X77977538Y-91377000D02*
G75*
G03*
X79522830Y-85827000I462J2990000D01*
G01*
X76433170Y-85827000D02*
G75*
G03*
X77978462Y-91377000I1544830J-2560000D01*
G01*
X80478000Y-88387000D02*
G75*
G03*
X80478000Y-88387000I-2500000J0D01*
G01*
%TO.C,D6*%
X212160000Y-56568000D02*
X212290000Y-56568000D01*
X209350000Y-56568000D02*
X209350000Y-51128000D01*
X212290000Y-56568000D02*
X212290000Y-51128000D01*
X212290000Y-51128000D02*
X212160000Y-51128000D01*
X209350000Y-55548000D02*
X212290000Y-55548000D01*
X209350000Y-51128000D02*
X209480000Y-51128000D01*
X209480000Y-56568000D02*
X209350000Y-56568000D01*
X209350000Y-55788000D02*
X212290000Y-55788000D01*
X209350000Y-55668000D02*
X212290000Y-55668000D01*
%TO.C,J11*%
X102907000Y-102948000D02*
X102907000Y-105608000D01*
X105507000Y-105608000D02*
X104177000Y-105608000D01*
X92687000Y-102948000D02*
X92687000Y-105608000D01*
X105507000Y-104278000D02*
X105507000Y-105608000D01*
X102907000Y-105608000D02*
X92687000Y-105608000D01*
X102907000Y-102948000D02*
X92687000Y-102948000D01*
%TO.C,R17*%
X90202000Y-88546000D02*
X90202000Y-88876000D01*
X96742000Y-88546000D02*
X90202000Y-88546000D01*
X96742000Y-90956000D02*
X96742000Y-91286000D01*
X96742000Y-88876000D02*
X96742000Y-88546000D01*
X90202000Y-91286000D02*
X90202000Y-90956000D01*
X96742000Y-91286000D02*
X90202000Y-91286000D01*
%TO.C,Q2*%
X104880000Y-82368000D02*
X108480000Y-82368000D01*
X106680000Y-77917999D02*
G75*
G03*
X104841522Y-82356478I0J-2600001D01*
G01*
X108518478Y-82356478D02*
G75*
G03*
X106680000Y-77918000I-1838478J1838478D01*
G01*
%TO.C,Q6*%
X114817678Y-97596478D02*
G75*
G03*
X112979200Y-93158000I-1838478J1838478D01*
G01*
X112979200Y-93157999D02*
G75*
G03*
X111140722Y-97596478I0J-2600001D01*
G01*
X111179200Y-97608000D02*
X114779200Y-97608000D01*
%TO.C,U1*%
X140572000Y-98104000D02*
X140572000Y-77664000D01*
X135272000Y-98104000D02*
X140572000Y-98104000D01*
X140572000Y-77664000D02*
X138922000Y-77664000D01*
X136922000Y-77664000D02*
X135272000Y-77664000D01*
X143062000Y-98164000D02*
X143062000Y-77604000D01*
X132782000Y-77604000D02*
X132782000Y-98164000D01*
X135272000Y-77664000D02*
X135272000Y-98104000D01*
X132782000Y-98164000D02*
X143062000Y-98164000D01*
X143062000Y-77604000D02*
X132782000Y-77604000D01*
X136922000Y-77664000D02*
G75*
G03*
X138922000Y-77664000I1000000J0D01*
G01*
%TO.C,J8*%
X138700600Y-130133800D02*
X138700600Y-128803800D01*
X140030600Y-130133800D02*
X138700600Y-130133800D01*
X141360600Y-127533800D02*
X141360600Y-107153800D01*
X138700600Y-127533800D02*
X138700600Y-107153800D01*
X141360600Y-127533800D02*
X138700600Y-127533800D01*
X141360600Y-107153800D02*
X138700600Y-107153800D01*
%TO.C,BZ1*%
X99775200Y-62728000D02*
G75*
G03*
X99775200Y-62728000I-6100000J0D01*
G01*
%TO.C,Q4*%
X111230000Y-74748000D02*
X114830000Y-74748000D01*
X114868478Y-74736478D02*
G75*
G03*
X113030000Y-70298000I-1838478J1838478D01*
G01*
X113030000Y-70297999D02*
G75*
G03*
X111191522Y-74736478I0J-2600001D01*
G01*
%TO.C,R5*%
X127069600Y-74956800D02*
X127069600Y-74626800D01*
X127069600Y-77366800D02*
X120529600Y-77366800D01*
X127069600Y-77036800D02*
X127069600Y-77366800D01*
X120529600Y-74626800D02*
X120529600Y-74956800D01*
X127069600Y-74626800D02*
X120529600Y-74626800D01*
X120529600Y-77366800D02*
X120529600Y-77036800D01*
%TO.C,R13*%
X168260000Y-87218000D02*
X172100000Y-87218000D01*
X168260000Y-89058000D02*
X172100000Y-89058000D01*
%TO.C,R14*%
X168260000Y-96678000D02*
X172100000Y-96678000D01*
X168260000Y-94838000D02*
X172100000Y-94838000D01*
%TO.C,R12*%
X132434000Y-59658000D02*
X132104000Y-59658000D01*
X132434000Y-53118000D02*
X132434000Y-59658000D01*
X129694000Y-53118000D02*
X129694000Y-59658000D01*
X129694000Y-59658000D02*
X130024000Y-59658000D01*
X132104000Y-53118000D02*
X132434000Y-53118000D01*
X130024000Y-53118000D02*
X129694000Y-53118000D01*
%TO.C,J9*%
X116900000Y-127528800D02*
X114240000Y-127528800D01*
X114240000Y-127528800D02*
X114240000Y-117308800D01*
X115570000Y-130128800D02*
X114240000Y-130128800D01*
X114240000Y-130128800D02*
X114240000Y-128798800D01*
X116900000Y-117308800D02*
X114240000Y-117308800D01*
X116900000Y-127528800D02*
X116900000Y-117308800D01*
%TO.C,R15*%
X127069600Y-95324800D02*
X127069600Y-95654800D01*
X120529600Y-92914800D02*
X120529600Y-93244800D01*
X127069600Y-93244800D02*
X127069600Y-92914800D01*
X120529600Y-95654800D02*
X120529600Y-95324800D01*
X127069600Y-95654800D02*
X120529600Y-95654800D01*
X127069600Y-92914800D02*
X120529600Y-92914800D01*
%TO.C,Q3*%
X108518478Y-89976478D02*
G75*
G03*
X106680000Y-85538000I-1838478J1838478D01*
G01*
X106680000Y-85537999D02*
G75*
G03*
X104841522Y-89976478I0J-2600001D01*
G01*
X104880000Y-89988000D02*
X108480000Y-89988000D01*
%TO.C,J2*%
X191770000Y-56423000D02*
X191770000Y-55423000D01*
X194930000Y-46793000D02*
X196530000Y-46793000D01*
X190970000Y-46193000D02*
X190970000Y-46793000D01*
X195730000Y-53753000D02*
X195730000Y-55423000D01*
X191655000Y-56423000D02*
X191655000Y-55418000D01*
X189750000Y-55418000D02*
X189750000Y-46193000D01*
X190970000Y-46793000D02*
X192570000Y-46793000D01*
X194930000Y-46193000D02*
X194930000Y-46793000D01*
X195730000Y-55423000D02*
X195730000Y-56423000D01*
X189750000Y-46193000D02*
X197750000Y-46193000D01*
X189460000Y-49413000D02*
X189460000Y-53413000D01*
X191770000Y-55423000D02*
X191770000Y-53753000D01*
X195845000Y-56423000D02*
X191655000Y-56423000D01*
X191770000Y-53753000D02*
X195730000Y-53753000D01*
X197750000Y-55418000D02*
X195845000Y-55418000D01*
X196530000Y-46793000D02*
X196530000Y-46193000D01*
X191770000Y-55423000D02*
X195730000Y-55423000D01*
X195845000Y-55418000D02*
X195845000Y-56423000D01*
X192570000Y-46793000D02*
X192570000Y-46193000D01*
X191655000Y-55418000D02*
X189750000Y-55418000D01*
X197750000Y-46193000D02*
X197750000Y-55418000D01*
%TO.C,R7*%
X96742000Y-82348400D02*
X90202000Y-82348400D01*
X96742000Y-84758400D02*
X96742000Y-85088400D01*
X90202000Y-85088400D02*
X90202000Y-84758400D01*
X96742000Y-85088400D02*
X90202000Y-85088400D01*
X90202000Y-82348400D02*
X90202000Y-82678400D01*
X96742000Y-82678400D02*
X96742000Y-82348400D01*
%TO.C,D1*%
X79523000Y-66020000D02*
X76433000Y-66020000D01*
X76433170Y-66020000D02*
G75*
G03*
X77978462Y-71570000I1544830J-2560000D01*
G01*
X77977538Y-71570000D02*
G75*
G03*
X79522830Y-66020000I462J2990000D01*
G01*
X80478000Y-68580000D02*
G75*
G03*
X80478000Y-68580000I-2500000J0D01*
G01*
%TO.C,R2*%
X120529600Y-86818800D02*
X120529600Y-87148800D01*
X127069600Y-89558800D02*
X120529600Y-89558800D01*
X120529600Y-89558800D02*
X120529600Y-89228800D01*
X127069600Y-89228800D02*
X127069600Y-89558800D01*
X127069600Y-86818800D02*
X120529600Y-86818800D01*
X127069600Y-87148800D02*
X127069600Y-86818800D01*
%TO.C,R8*%
X127069600Y-84100800D02*
X127069600Y-83770800D01*
X127069600Y-86510800D02*
X120529600Y-86510800D01*
X127069600Y-83770800D02*
X120529600Y-83770800D01*
X120529600Y-86510800D02*
X120529600Y-86180800D01*
X120529600Y-83770800D02*
X120529600Y-84100800D01*
X127069600Y-86180800D02*
X127069600Y-86510800D01*
%TO.C,R6*%
X96742000Y-76150800D02*
X90202000Y-76150800D01*
X96742000Y-76480800D02*
X96742000Y-76150800D01*
X90202000Y-76150800D02*
X90202000Y-76480800D01*
X96742000Y-78560800D02*
X96742000Y-78890800D01*
X90202000Y-78890800D02*
X90202000Y-78560800D01*
X96742000Y-78890800D02*
X90202000Y-78890800D01*
%TO.C,D2*%
X80478000Y-75184000D02*
G75*
G03*
X80478000Y-75184000I-2500000J0D01*
G01*
X77977538Y-78174000D02*
G75*
G03*
X79522830Y-72624000I462J2990000D01*
G01*
X76433170Y-72624000D02*
G75*
G03*
X77978462Y-78174000I1544830J-2560000D01*
G01*
X79523000Y-72624000D02*
X76433000Y-72624000D01*
%TO.C,D5*%
X101166000Y-55045000D02*
X106606000Y-55045000D01*
X101166000Y-57855000D02*
X101166000Y-57985000D01*
X101166000Y-57985000D02*
X106606000Y-57985000D01*
X101166000Y-55175000D02*
X101166000Y-55045000D01*
X102186000Y-55045000D02*
X102186000Y-57985000D01*
X102066000Y-55045000D02*
X102066000Y-57985000D01*
X106606000Y-55045000D02*
X106606000Y-55175000D01*
X101946000Y-55045000D02*
X101946000Y-57985000D01*
X106606000Y-57985000D02*
X106606000Y-57855000D01*
%TO.C,J13*%
X153320000Y-46793000D02*
X154920000Y-46793000D01*
X143040000Y-46793000D02*
X143040000Y-46193000D01*
X172420000Y-55423000D02*
X185800000Y-55423000D01*
X186600000Y-46793000D02*
X186600000Y-46193000D01*
X170760000Y-46793000D02*
X170760000Y-46193000D01*
X145400000Y-46793000D02*
X147000000Y-46793000D01*
X185000000Y-46793000D02*
X186600000Y-46793000D01*
X187820000Y-46193000D02*
X187820000Y-55418000D01*
X157280000Y-46793000D02*
X158880000Y-46793000D01*
X161240000Y-46793000D02*
X162840000Y-46793000D01*
X142125000Y-56423000D02*
X142125000Y-55418000D01*
X174720000Y-46793000D02*
X174720000Y-46193000D01*
X154920000Y-46793000D02*
X154920000Y-46193000D01*
X173120000Y-46193000D02*
X173120000Y-46793000D01*
X156580000Y-53753000D02*
X171460000Y-53753000D01*
X141440000Y-46793000D02*
X143040000Y-46793000D01*
X172420000Y-55423000D02*
X172420000Y-53753000D01*
X178680000Y-46793000D02*
X178680000Y-46193000D01*
X141440000Y-46193000D02*
X141440000Y-46793000D01*
X172420000Y-56423000D02*
X172420000Y-55423000D01*
X145400000Y-46193000D02*
X145400000Y-46793000D01*
X171460000Y-55423000D02*
X171460000Y-56423000D01*
X147000000Y-46793000D02*
X147000000Y-46193000D01*
X187820000Y-55418000D02*
X185915000Y-55418000D01*
X153320000Y-46193000D02*
X153320000Y-46793000D01*
X140220000Y-46193000D02*
X187820000Y-46193000D01*
X177080000Y-46793000D02*
X178680000Y-46793000D01*
X182640000Y-46793000D02*
X182640000Y-46193000D01*
X169160000Y-46793000D02*
X170760000Y-46793000D01*
X149360000Y-46793000D02*
X150960000Y-46793000D01*
X142125000Y-55418000D02*
X140220000Y-55418000D01*
X142240000Y-53753000D02*
X155620000Y-53753000D01*
X161240000Y-46193000D02*
X161240000Y-46793000D01*
X162840000Y-46793000D02*
X162840000Y-46193000D01*
X172420000Y-53753000D02*
X185800000Y-53753000D01*
X155620000Y-55423000D02*
X155620000Y-56423000D01*
X142240000Y-56423000D02*
X142240000Y-55423000D01*
X165200000Y-46193000D02*
X165200000Y-46793000D01*
X156580000Y-55423000D02*
X156580000Y-53753000D01*
X185800000Y-53753000D02*
X185800000Y-55423000D01*
X142240000Y-55423000D02*
X155620000Y-55423000D01*
X185800000Y-55423000D02*
X185800000Y-56423000D01*
X140220000Y-55418000D02*
X140220000Y-46193000D01*
X181040000Y-46193000D02*
X181040000Y-46793000D01*
X185000000Y-46193000D02*
X185000000Y-46793000D01*
X185915000Y-56423000D02*
X142125000Y-56423000D01*
X185915000Y-55418000D02*
X185915000Y-56423000D01*
X156580000Y-55423000D02*
X171460000Y-55423000D01*
X150960000Y-46793000D02*
X150960000Y-46193000D01*
X149360000Y-46193000D02*
X149360000Y-46793000D01*
X177080000Y-46193000D02*
X177080000Y-46793000D01*
X173120000Y-46793000D02*
X174720000Y-46793000D01*
X158880000Y-46793000D02*
X158880000Y-46193000D01*
X156580000Y-56423000D02*
X156580000Y-55423000D01*
X142240000Y-55423000D02*
X142240000Y-53753000D01*
X165200000Y-46793000D02*
X166800000Y-46793000D01*
X171460000Y-53753000D02*
X171460000Y-55423000D01*
X139930000Y-49413000D02*
X139930000Y-53413000D01*
X155620000Y-53753000D02*
X155620000Y-55423000D01*
X166800000Y-46793000D02*
X166800000Y-46193000D01*
X169160000Y-46193000D02*
X169160000Y-46793000D01*
X181040000Y-46793000D02*
X182640000Y-46793000D01*
X157280000Y-46193000D02*
X157280000Y-46793000D01*
%TO.C,R4*%
X96742000Y-79249600D02*
X90202000Y-79249600D01*
X96742000Y-81659600D02*
X96742000Y-81989600D01*
X90202000Y-81989600D02*
X90202000Y-81659600D01*
X96742000Y-79579600D02*
X96742000Y-79249600D01*
X96742000Y-81989600D02*
X90202000Y-81989600D01*
X90202000Y-79249600D02*
X90202000Y-79579600D01*
%TO.C,Q5*%
X104880000Y-74748000D02*
X108480000Y-74748000D01*
X106680000Y-70297999D02*
G75*
G03*
X104841522Y-74736478I0J-2600001D01*
G01*
X108518478Y-74736478D02*
G75*
G03*
X106680000Y-70298000I-1838478J1838478D01*
G01*
%TO.C,R11*%
X96742000Y-88187200D02*
X90202000Y-88187200D01*
X96742000Y-85777200D02*
X96742000Y-85447200D01*
X96742000Y-85447200D02*
X90202000Y-85447200D01*
X90202000Y-88187200D02*
X90202000Y-87857200D01*
X96742000Y-87857200D02*
X96742000Y-88187200D01*
X90202000Y-85447200D02*
X90202000Y-85777200D01*
%TD*%
M02*
